<?xml version="1.0" encoding="UTF-8"?><svg id="a" xmlns="http://www.w3.org/2000/svg" viewBox="0 0 533 138"><defs><style>.b{fill:#2c7df5;}</style></defs><path class="b" d="M162.595,72.96h-18.291c-.938,0-1.773,.598-2.075,1.486l-13.243,38.995h-.357l-13.856-39.024c-.31-.874-1.137-1.458-2.065-1.458h-17.956c-1.21,0-2.191,.981-2.191,2.191v46.154H41.364c-14.697,0-26.653-11.956-26.653-26.653s11.956-26.653,26.653-26.653c.317,0,8.968-.37,8.968-.37,1.006-.055,1.707-1.023,1.444-1.996l-1.852-6.877c-.802-2.976-1.208-6.042-1.208-9.113,0-19.262,15.671-34.932,34.932-34.932,8.403,0,16.524,3.026,22.865,8.522,6.281,5.444,10.424,12.937,11.667,21.099l.916,6.015c.137,.899,.999,1.498,1.889,1.314l5.423-1.123c1.539-.319,3.111-.493,4.68-.413,6.895,.352,14.214,4.528,15.494,12.203,.127,.765,.789,1.325,1.565,1.325l12.118-.006c.926,0,1.655-.791,1.58-1.715h0c-1.427-17.482-15.893-25.804-29.513-26.498-.67-.034-1.245-.471-1.452-1.109-2.786-8.602-7.847-16.244-14.731-22.211C107.133,4.303,95.592,0,83.649,0c-27.374,0-49.644,22.27-49.644,49.644,0,.951,.028,1.908,.083,2.865,.045,.784-.468,1.498-1.237,1.66C13.933,58.146,0,75.063,0,94.652,0,117.46,18.556,136.016,41.364,136.016h52.853c.172,.043,.349,.074,.535,.074h9.957c1.217,0,2.201-.992,2.191-2.209l-.339-42.464h.267l15.441,43.219c.311,.872,1.137,1.454,2.063,1.454h7.627c.919,0,1.74-.573,2.057-1.436l15.879-43.237h.267l-.339,42.464c-.01,1.217,.974,2.209,2.191,2.209h10.58c1.21,0,2.191-.981,2.191-2.191v-58.748c0-1.21-.981-2.191-2.191-2.191Z"/><path class="b" d="M237.855,80.182c-3.063-2.853-6.703-5.052-10.923-6.598-4.221-1.545-8.798-2.318-13.732-2.318s-9.496,.773-13.687,2.318c-4.191,1.547-7.818,3.745-10.879,6.598-3.062,2.853-5.454,6.317-7.178,10.388-1.724,4.072-2.586,8.635-2.586,13.687,0,4.994,.862,9.556,2.586,13.687,1.723,4.132,4.116,7.668,7.178,10.611,3.061,2.943,6.688,5.216,10.879,6.821,4.191,1.605,8.752,2.408,13.687,2.408s9.511-.802,13.732-2.408c4.22-1.605,7.86-3.878,10.923-6.821,3.061-2.942,5.453-6.479,7.178-10.611,1.723-4.131,2.586-8.694,2.586-13.687,0-5.052-.863-9.614-2.586-13.687-1.725-4.071-4.117-7.535-7.178-10.388Zm-7.891,31.967c-.891,2.407-2.14,4.473-3.745,6.197-1.605,1.725-3.508,3.076-5.707,4.057-2.199,.981-4.637,1.471-7.312,1.471s-5.113-.49-7.312-1.471c-2.2-.981-4.087-2.332-5.662-4.057-1.576-1.723-2.809-3.789-3.7-6.197-.892-2.408-1.337-5.038-1.337-7.892,0-2.733,.43-5.29,1.293-7.668,.861-2.377,2.095-4.414,3.7-6.108,1.605-1.694,3.506-3.031,5.706-4.012,2.198-.981,4.637-1.471,7.312-1.471s5.127,.49,7.357,1.471c2.229,.981,4.131,2.318,5.706,4.012,1.574,1.694,2.809,3.731,3.7,6.108,.892,2.378,1.337,4.935,1.337,7.668,0,2.854-.445,5.484-1.337,7.892Z"/><path class="b" d="M373.164,80.182c-3.062-2.853-6.703-5.052-10.923-6.598-4.221-1.545-8.798-2.318-13.732-2.318s-9.496,.773-13.687,2.318c-4.191,1.547-7.818,3.745-10.879,6.598-3.062,2.853-5.454,6.317-7.178,10.388-1.725,4.072-2.586,8.635-2.586,13.687,0,4.994,.862,9.556,2.586,13.687,1.723,4.132,4.116,7.668,7.178,10.611,3.061,2.943,6.688,5.216,10.879,6.821,4.191,1.605,8.752,2.408,13.687,2.408s9.511-.802,13.732-2.408c4.22-1.605,7.861-3.878,10.923-6.821,3.061-2.942,5.453-6.479,7.178-10.611,1.723-4.131,2.586-8.694,2.586-13.687,0-5.052-.863-9.614-2.586-13.687-1.725-4.071-4.117-7.535-7.178-10.388Zm-7.891,31.967c-.891,2.407-2.14,4.473-3.745,6.197-1.605,1.725-3.508,3.076-5.707,4.057-2.199,.981-4.637,1.471-7.312,1.471s-5.113-.49-7.312-1.471c-2.2-.981-4.087-2.332-5.662-4.057-1.576-1.723-2.809-3.789-3.7-6.197-.892-2.408-1.337-5.038-1.337-7.892,0-2.733,.43-5.29,1.293-7.668,.861-2.377,2.095-4.414,3.7-6.108,1.605-1.694,3.506-3.031,5.706-4.012,2.198-.981,4.637-1.471,7.312-1.471s5.127,.49,7.357,1.471c2.229,.981,4.131,2.318,5.706,4.012,1.574,1.694,2.809,3.731,3.7,6.108,.892,2.378,1.337,4.935,1.337,7.668,0,2.854-.445,5.484-1.337,7.892Z"/><path class="b" d="M445.598,118.945c-.878-.826-2.242-.771-3.085,.09-1.133,1.158-2.478,2.147-4.034,2.965-2.259,1.19-4.904,1.783-7.936,1.783-2.616,0-5.024-.475-7.222-1.427-2.2-.95-4.088-2.274-5.662-3.968-1.576-1.694-2.809-3.73-3.701-6.108-.892-2.377-1.338-4.993-1.338-7.846,0-2.794,.446-5.364,1.338-7.713,.892-2.348,2.14-4.383,3.745-6.108,1.605-1.724,3.522-3.076,5.751-4.057,2.229-.981,4.681-1.471,7.356-1.471,2.437,0,4.815,.477,7.133,1.427,1.607,.66,3.001,1.562,4.179,2.707,.868,.843,2.238,.862,3.094,.006l7.158-7.158c.885-.885,.843-2.323-.076-3.172-2.42-2.235-5.377-3.991-8.871-5.268-4.311-1.574-8.694-2.363-13.152-2.363-4.815,0-9.304,.773-13.464,2.318-4.162,1.547-7.788,3.76-10.879,6.643-3.091,2.884-5.514,6.376-7.267,10.477-1.754,4.102-2.631,8.68-2.631,13.732,0,4.935,.861,9.451,2.586,13.553,1.724,4.101,4.102,7.624,7.133,10.566,3.031,2.943,6.612,5.216,10.745,6.821,4.131,1.605,8.634,2.408,13.508,2.408,5.35,0,10.076-.936,14.178-2.809,3.359-1.534,6.28-3.517,8.763-5.948,.896-.877,.899-2.317-.014-3.177l-7.337-6.905Z"/><path class="b" d="M530.414,90.57c-1.725-4.071-4.117-7.535-7.178-10.388-3.063-2.853-6.703-5.052-10.923-6.598-4.221-1.545-8.798-2.318-13.732-2.318s-9.496,.773-13.687,2.318c-4.191,1.547-7.818,3.745-10.879,6.598-3.062,2.853-5.454,6.317-7.178,10.388-1.725,4.072-2.586,8.635-2.586,13.687,0,4.994,.861,9.556,2.586,13.687,1.723,4.132,4.116,7.668,7.178,10.611,3.061,2.943,6.688,5.216,10.879,6.821,4.191,1.605,8.752,2.408,13.687,2.408s9.511-.802,13.732-2.408c4.22-1.605,7.86-3.878,10.923-6.821,3.061-2.942,5.453-6.479,7.178-10.611,1.723-4.131,2.586-8.694,2.586-13.687,0-5.052-.863-9.614-2.586-13.687Zm-15.069,21.578c-.891,2.407-2.14,4.473-3.745,6.197-1.605,1.725-3.508,3.076-5.707,4.057-2.199,.981-4.637,1.471-7.312,1.471s-5.113-.49-7.312-1.471c-2.2-.981-4.087-2.332-5.662-4.057-1.576-1.723-2.809-3.789-3.7-6.197-.892-2.408-1.337-5.038-1.337-7.892,0-2.733,.43-5.29,1.293-7.668,.861-2.377,2.095-4.414,3.7-6.108,1.605-1.694,3.506-3.031,5.706-4.012,2.198-.981,4.637-1.471,7.312-1.471s5.127,.49,7.357,1.471c2.229,.981,4.131,2.318,5.706,4.012,1.574,1.694,2.809,3.731,3.7,6.108,.892,2.378,1.337,4.935,1.337,7.668,0,2.854-.445,5.484-1.337,7.892Z"/><path class="b" d="M303.893,123.545h-24.06c-1.208,0-2.187-.979-2.187-2.187v-45.47c0-1.208-.979-2.187-2.187-2.187h-10.963c-1.208,0-2.187,.979-2.187,2.187v58.756c0,1.208,.979,2.187,2.187,2.187h39.397c1.208,0,2.187-.979,2.187-2.187v-8.912c0-1.208-.979-2.187-2.187-2.187Z"/></svg>