<?xml version="1.0" encoding="UTF-8" standalone="no"?>
<svg
   xmlns:dc="http://purl.org/dc/elements/1.1/"
   xmlns:cc="http://creativecommons.org/ns#"
   xmlns:rdf="http://www.w3.org/1999/02/22-rdf-syntax-ns#"
   xmlns:svg="http://www.w3.org/2000/svg"
   xmlns="http://www.w3.org/2000/svg"
   xmlns:sodipodi="http://sodipodi.sourceforge.net/DTD/sodipodi-0.dtd"
   xmlns:inkscape="http://www.inkscape.org/namespaces/inkscape"
   version="1.1"
   id="svg2"
   xml:space="preserve"
   width="502.31067"
   height="117.94027"
   viewBox="0 0 502.31067 117.94027"
   sodipodi:docname="programmers-Ci (3).ai"><metadata
     id="metadata8"><rdf:RDF><cc:Work
         rdf:about=""><dc:format>image/svg+xml</dc:format><dc:type
           rdf:resource="http://purl.org/dc/dcmitype/StillImage" /></cc:Work></rdf:RDF></metadata><defs
     id="defs6"><clipPath
       clipPathUnits="userSpaceOnUse"
       id="clipPath20"><path
         d="M 0,88.455 H 376.733 V 0 H 0 Z"
         id="path18" /></clipPath></defs><sodipodi:namedview
     pagecolor="#ffffff"
     bordercolor="#666666"
     borderopacity="1"
     objecttolerance="10"
     gridtolerance="10"
     guidetolerance="10"
     inkscape:pageopacity="0"
     inkscape:pageshadow="2"
     inkscape:window-width="640"
     inkscape:window-height="480"
     id="namedview4" /><g
     id="g10"
     inkscape:groupmode="layer"
     inkscape:label="programmers-Ci (3)"
     transform="matrix(1.3333333,0,0,-1.3333333,0,117.94027)"><path
       d="M 0,0 H 376.734 V 88.456 H 0 Z"
       style="fill:#1f2b3d;fill-opacity:1;fill-rule:nonzero;stroke:none"
       id="path12" /><g
       id="g14"><g
         id="g16"
         clip-path="url(#clipPath20)"><g
           id="g22"
           transform="translate(80.0656,57.4606)"><path
             d="m 0,0 h 6.224 v -2.887 h 0.091 c 0.27,0.391 0.624,0.79 1.06,1.196 0.436,0.406 0.947,0.774 1.533,1.105 0.586,0.33 1.225,0.601 1.917,0.812 0.692,0.21 1.428,0.315 2.21,0.315 1.624,0 3.097,-0.278 4.42,-0.834 1.323,-0.556 2.459,-1.338 3.406,-2.346 0.947,-1.007 1.676,-2.202 2.187,-3.585 0.512,-1.384 0.767,-2.902 0.767,-4.556 0,-1.534 -0.233,-3 -0.699,-4.398 -0.466,-1.398 -1.128,-2.638 -1.985,-3.721 -0.857,-1.082 -1.901,-1.947 -3.134,-2.593 -1.233,-0.647 -2.631,-0.97 -4.195,-0.97 -1.413,0 -2.729,0.218 -3.947,0.654 -1.218,0.436 -2.217,1.18 -2.999,2.233 h -0.09 v -12.63 H 0 Z m 6.224,-10.96 c 0,-1.654 0.474,-2.992 1.421,-4.015 0.947,-1.022 2.278,-1.533 3.992,-1.533 1.714,0 3.044,0.511 3.992,1.533 0.947,1.023 1.42,2.361 1.42,4.015 0,1.653 -0.473,2.991 -1.42,4.014 -0.948,1.022 -2.278,1.533 -3.992,1.533 -1.714,0 -3.045,-0.511 -3.992,-1.533 C 6.698,-7.969 6.224,-9.307 6.224,-10.96 M 26.793,0 h 6.766 v -3.518 h 0.09 c 0.722,1.353 1.579,2.368 2.571,3.044 0.992,0.677 2.24,1.015 3.744,1.015 0.39,0 0.781,-0.015 1.172,-0.045 0.391,-0.03 0.752,-0.09 1.083,-0.18 v -6.18 c -0.481,0.151 -0.955,0.263 -1.421,0.339 -0.466,0.075 -0.955,0.112 -1.466,0.112 -1.293,0 -2.315,-0.18 -3.067,-0.541 -0.752,-0.361 -1.331,-0.864 -1.737,-1.511 -0.406,-0.646 -0.669,-1.421 -0.789,-2.323 -0.12,-0.902 -0.18,-1.894 -0.18,-2.977 v -9.156 h -6.766 z m 15.742,-10.96 c 0,1.744 0.316,3.322 0.948,4.736 0.631,1.413 1.496,2.623 2.593,3.63 1.098,1.008 2.391,1.782 3.879,2.323 1.489,0.542 3.075,0.812 4.759,0.812 1.684,0 3.27,-0.27 4.758,-0.812 1.489,-0.541 2.782,-1.315 3.879,-2.323 1.098,-1.007 1.962,-2.217 2.594,-3.63 0.631,-1.414 0.947,-2.992 0.947,-4.736 0,-1.745 -0.316,-3.323 -0.947,-4.736 -0.632,-1.414 -1.496,-2.624 -2.594,-3.631 -1.097,-1.008 -2.39,-1.782 -3.879,-2.323 -1.488,-0.542 -3.074,-0.812 -4.758,-0.812 -1.684,0 -3.27,0.27 -4.759,0.812 -1.488,0.541 -2.781,1.315 -3.879,2.323 -1.097,1.007 -1.962,2.217 -2.593,3.631 -0.632,1.413 -0.948,2.991 -0.948,4.736 m 6.766,0 c 0,-1.654 0.474,-2.992 1.421,-4.015 0.947,-1.022 2.278,-1.533 3.992,-1.533 1.714,0 3.044,0.511 3.991,1.533 0.948,1.023 1.421,2.361 1.421,4.015 0,1.653 -0.473,2.991 -1.421,4.014 -0.947,1.022 -2.277,1.533 -3.991,1.533 -1.714,0 -3.045,-0.511 -3.992,-1.533 -0.947,-1.023 -1.421,-2.361 -1.421,-4.014 m 43.572,-9.112 c 0,-4.149 -1.045,-7.299 -3.135,-9.449 -2.09,-2.15 -5.269,-3.225 -9.539,-3.225 -1.955,0 -3.879,0.218 -5.774,0.654 -1.894,0.436 -3.638,1.285 -5.232,2.548 l 3.744,5.593 c 1.052,-0.872 2.157,-1.563 3.315,-2.074 1.158,-0.512 2.428,-0.767 3.811,-0.767 2.075,0 3.601,0.503 4.578,1.511 0.978,1.007 1.466,2.293 1.466,3.856 v 2.12 h -0.09 c -0.782,-1.052 -1.751,-1.797 -2.909,-2.233 -1.158,-0.436 -2.248,-0.654 -3.27,-0.654 -1.624,0 -3.097,0.279 -4.42,0.835 -1.323,0.556 -2.459,1.338 -3.406,2.345 -0.947,1.008 -1.676,2.203 -2.187,3.586 -0.512,1.383 -0.767,2.902 -0.767,4.556 0,1.443 0.233,2.856 0.699,4.24 0.466,1.383 1.128,2.601 1.985,3.653 0.857,1.053 1.902,1.902 3.134,2.549 1.233,0.646 2.631,0.969 4.195,0.969 0.962,0 1.842,-0.105 2.639,-0.315 0.797,-0.211 1.511,-0.482 2.142,-0.812 0.632,-0.331 1.173,-0.699 1.624,-1.105 0.451,-0.406 0.812,-0.805 1.082,-1.196 h 0.091 V 0 h 6.224 z m -17.049,9.247 c 0,-0.722 0.135,-1.406 0.405,-2.052 0.271,-0.647 0.654,-1.218 1.151,-1.714 0.496,-0.497 1.067,-0.895 1.714,-1.196 0.646,-0.3 1.36,-0.451 2.142,-0.451 0.752,0 1.458,0.151 2.12,0.451 0.662,0.301 1.24,0.699 1.737,1.196 0.496,0.496 0.879,1.067 1.15,1.714 0.27,0.646 0.406,1.33 0.406,2.052 0,0.722 -0.136,1.406 -0.406,2.052 -0.271,0.647 -0.654,1.218 -1.15,1.714 -0.497,0.496 -1.075,0.895 -1.737,1.195 -0.662,0.301 -1.368,0.451 -2.12,0.451 -0.782,0 -1.496,-0.15 -2.142,-0.451 -0.647,-0.3 -1.218,-0.699 -1.714,-1.195 -0.497,-0.496 -0.88,-1.067 -1.151,-1.714 -0.27,-0.646 -0.405,-1.33 -0.405,-2.052 M 97.294,0 h 6.766 v -3.518 h 0.09 c 0.722,1.353 1.579,2.368 2.571,3.044 0.992,0.677 2.24,1.015 3.744,1.015 0.391,0 0.782,-0.015 1.172,-0.045 0.391,-0.03 0.752,-0.09 1.083,-0.18 v -6.18 c -0.481,0.151 -0.955,0.263 -1.421,0.339 -0.466,0.075 -0.955,0.112 -1.466,0.112 -1.293,0 -2.315,-0.18 -3.067,-0.541 -0.752,-0.361 -1.33,-0.864 -1.736,-1.511 -0.406,-0.646 -0.669,-1.421 -0.79,-2.323 -0.12,-0.902 -0.18,-1.894 -0.18,-2.977 v -9.156 h -6.766 z m 31.123,-19.17 h -0.09 c -0.752,-1.172 -1.751,-2.014 -2.999,-2.525 -1.248,-0.512 -2.564,-0.767 -3.947,-0.767 -1.022,0 -2.007,0.143 -2.954,0.428 -0.948,0.286 -1.782,0.714 -2.504,1.286 -0.721,0.571 -1.293,1.278 -1.714,2.12 -0.421,0.842 -0.631,1.819 -0.631,2.932 0,1.262 0.233,2.33 0.699,3.202 0.466,0.872 1.098,1.594 1.894,2.165 0.797,0.571 1.707,1.015 2.729,1.331 1.023,0.315 2.083,0.548 3.18,0.699 1.098,0.15 2.195,0.24 3.293,0.27 1.097,0.03 2.112,0.045 3.044,0.045 0,1.203 -0.428,2.158 -1.285,2.865 -0.857,0.706 -1.872,1.06 -3.045,1.06 -1.112,0 -2.127,-0.233 -3.044,-0.7 -0.917,-0.466 -1.737,-1.105 -2.458,-1.917 l -3.609,3.699 c 1.263,1.173 2.737,2.052 4.42,2.639 1.684,0.586 3.428,0.879 5.233,0.879 1.984,0 3.615,-0.248 4.893,-0.744 1.278,-0.496 2.301,-1.225 3.067,-2.188 0.767,-0.962 1.301,-2.142 1.602,-3.54 0.3,-1.399 0.451,-3.015 0.451,-4.849 v -11.141 h -6.225 z m -1.669,6.856 c -0.511,0 -1.15,-0.022 -1.917,-0.067 -0.766,-0.045 -1.503,-0.173 -2.21,-0.384 -0.706,-0.21 -1.308,-0.526 -1.804,-0.947 -0.496,-0.421 -0.744,-1.007 -0.744,-1.759 0,-0.812 0.346,-1.413 1.037,-1.804 0.692,-0.391 1.414,-0.586 2.165,-0.586 0.662,0 1.301,0.09 1.917,0.27 0.617,0.181 1.166,0.436 1.647,0.767 0.481,0.331 0.864,0.752 1.15,1.263 0.285,0.511 0.428,1.112 0.428,1.804 v 1.443 z M 137.89,0 h 6.495 v -2.977 h 0.09 c 0.211,0.421 0.512,0.842 0.903,1.263 0.39,0.421 0.857,0.797 1.398,1.128 0.541,0.33 1.158,0.601 1.849,0.812 0.692,0.21 1.443,0.315 2.255,0.315 1.534,0 2.895,-0.315 4.082,-0.947 1.188,-0.631 2.083,-1.624 2.684,-2.977 0.782,1.413 1.729,2.421 2.842,3.022 1.112,0.602 2.48,0.902 4.104,0.902 1.473,0 2.714,-0.248 3.721,-0.744 1.008,-0.496 1.804,-1.173 2.391,-2.03 0.586,-0.857 1.007,-1.864 1.263,-3.022 0.255,-1.157 0.383,-2.398 0.383,-3.721 v -12.945 h -6.766 v 12.765 c 0,1.022 -0.218,1.902 -0.654,2.638 -0.436,0.737 -1.21,1.105 -2.323,1.105 -0.781,0 -1.435,-0.127 -1.962,-0.383 -0.526,-0.256 -0.947,-0.609 -1.262,-1.06 -0.316,-0.451 -0.542,-0.977 -0.677,-1.579 -0.135,-0.601 -0.203,-1.232 -0.203,-1.894 v -11.592 h -6.766 v 11.592 c 0,0.391 -0.015,0.872 -0.045,1.443 -0.03,0.572 -0.135,1.113 -0.316,1.624 -0.18,0.511 -0.473,0.947 -0.879,1.308 -0.406,0.361 -1,0.541 -1.782,0.541 -0.872,0 -1.578,-0.157 -2.12,-0.473 -0.541,-0.316 -0.954,-0.737 -1.24,-1.263 -0.286,-0.526 -0.474,-1.12 -0.564,-1.782 -0.09,-0.661 -0.135,-1.353 -0.135,-2.075 v -10.915 h -6.766 z m 38.25,0 h 6.495 v -2.977 h 0.09 c 0.211,0.421 0.511,0.842 0.902,1.263 0.391,0.421 0.857,0.797 1.398,1.128 0.542,0.33 1.158,0.601 1.85,0.812 0.691,0.21 1.443,0.315 2.255,0.315 1.533,0 2.894,-0.315 4.082,-0.947 1.188,-0.631 2.082,-1.624 2.684,-2.977 0.781,1.413 1.729,2.421 2.841,3.022 1.113,0.602 2.481,0.902 4.105,0.902 1.473,0 2.713,-0.248 3.721,-0.744 1.007,-0.496 1.804,-1.173 2.39,-2.03 0.587,-0.857 1.008,-1.864 1.263,-3.022 0.256,-1.157 0.384,-2.398 0.384,-3.721 v -12.945 h -6.766 v 12.765 c 0,1.022 -0.218,1.902 -0.654,2.638 -0.436,0.737 -1.21,1.105 -2.323,1.105 -0.782,0 -1.436,-0.127 -1.962,-0.383 -0.526,-0.256 -0.947,-0.609 -1.263,-1.06 -0.316,-0.451 -0.541,-0.977 -0.677,-1.579 -0.135,-0.601 -0.202,-1.232 -0.202,-1.894 v -11.592 h -6.766 v 11.592 c 0,0.391 -0.015,0.872 -0.045,1.443 -0.03,0.572 -0.136,1.113 -0.316,1.624 -0.18,0.511 -0.474,0.947 -0.88,1.308 -0.405,0.361 -0.999,0.541 -1.781,0.541 -0.872,0 -1.579,-0.157 -2.12,-0.473 -0.541,-0.316 -0.955,-0.737 -1.24,-1.263 -0.286,-0.526 -0.474,-1.12 -0.564,-1.782 -0.09,-0.661 -0.136,-1.353 -0.136,-2.075 v -10.915 h -6.765 z m 58.997,-18.132 c -1.082,-1.383 -2.45,-2.451 -4.104,-3.203 -1.654,-0.751 -3.368,-1.127 -5.142,-1.127 -1.684,0 -3.27,0.27 -4.759,0.812 -1.488,0.541 -2.781,1.315 -3.879,2.323 -1.097,1.007 -1.962,2.217 -2.593,3.631 -0.631,1.413 -0.947,2.991 -0.947,4.736 0,1.744 0.316,3.322 0.947,4.736 0.631,1.413 1.496,2.623 2.593,3.63 1.098,1.008 2.391,1.782 3.879,2.323 1.489,0.542 3.075,0.812 4.759,0.812 1.564,0 2.984,-0.27 4.262,-0.812 1.278,-0.541 2.361,-1.315 3.248,-2.323 0.887,-1.007 1.571,-2.217 2.052,-3.63 0.481,-1.414 0.722,-2.992 0.722,-4.736 v -2.12 h -15.697 c 0.271,-1.293 0.857,-2.323 1.76,-3.09 0.902,-0.767 2.014,-1.15 3.337,-1.15 1.113,0 2.053,0.248 2.819,0.744 0.767,0.496 1.436,1.135 2.007,1.917 z m -5.728,9.652 c 0.03,1.143 -0.346,2.12 -1.127,2.932 -0.782,0.812 -1.79,1.218 -3.022,1.218 -0.752,0 -1.414,-0.12 -1.985,-0.361 -0.571,-0.24 -1.06,-0.549 -1.466,-0.925 -0.406,-0.375 -0.722,-0.811 -0.947,-1.308 -0.226,-0.496 -0.353,-1.014 -0.384,-1.556 z M 239.288,0 h 6.766 v -3.518 h 0.09 c 0.722,1.353 1.579,2.368 2.571,3.044 0.992,0.677 2.24,1.015 3.743,1.015 0.391,0 0.782,-0.015 1.173,-0.045 0.391,-0.03 0.752,-0.09 1.083,-0.18 v -6.18 c -0.481,0.151 -0.955,0.263 -1.421,0.339 -0.466,0.075 -0.955,0.112 -1.466,0.112 -1.293,0 -2.315,-0.18 -3.067,-0.541 -0.752,-0.361 -1.331,-0.864 -1.737,-1.511 -0.406,-0.646 -0.669,-1.421 -0.789,-2.323 -0.12,-0.902 -0.18,-1.894 -0.18,-2.977 v -9.156 h -6.766 z m 29.77,-6.45 c -0.992,1.233 -2.3,1.849 -3.924,1.849 -0.571,0 -1.128,-0.135 -1.669,-0.406 -0.541,-0.27 -0.812,-0.736 -0.812,-1.398 0,-0.541 0.278,-0.94 0.835,-1.195 0.556,-0.256 1.262,-0.481 2.119,-0.677 0.857,-0.195 1.775,-0.406 2.752,-0.631 0.977,-0.226 1.894,-0.579 2.751,-1.06 0.857,-0.481 1.564,-1.135 2.12,-1.962 0.556,-0.827 0.835,-1.932 0.835,-3.315 0,-1.414 -0.309,-2.579 -0.925,-3.496 -0.617,-0.917 -1.406,-1.654 -2.368,-2.21 -0.962,-0.556 -2.045,-0.947 -3.248,-1.173 -1.202,-0.225 -2.39,-0.338 -3.563,-0.338 -1.533,0 -3.082,0.218 -4.646,0.654 -1.563,0.436 -2.886,1.21 -3.969,2.323 l 4.105,4.555 c 0.631,-0.782 1.33,-1.375 2.097,-1.781 0.767,-0.406 1.661,-0.609 2.684,-0.609 0.782,0 1.488,0.113 2.12,0.338 0.631,0.226 0.947,0.639 0.947,1.24 0,0.572 -0.278,1 -0.835,1.286 -0.556,0.286 -1.263,0.526 -2.119,0.722 -0.857,0.195 -1.775,0.406 -2.752,0.631 -0.977,0.226 -1.894,0.564 -2.751,1.015 -0.857,0.451 -1.564,1.09 -2.12,1.917 -0.556,0.827 -0.835,1.932 -0.835,3.315 0,1.293 0.264,2.406 0.79,3.338 0.526,0.932 1.218,1.699 2.075,2.3 0.857,0.602 1.841,1.045 2.954,1.331 1.112,0.285 2.24,0.428 3.383,0.428 1.443,0 2.901,-0.21 4.375,-0.631 1.473,-0.421 2.721,-1.173 3.744,-2.255 z"
             style="fill:#ffffff;fill-opacity:1;fill-rule:evenodd;stroke:none"
             id="path24" /></g><g
           id="g26"
           transform="translate(28.0888,66.3429)"><path
             d="m 0,0 h 33.003 c 3.038,0 5.501,-2.463 5.501,-5.501 v -33.003 c 0,-3.038 -2.463,-5.501 -5.501,-5.501 H 0 c -3.038,0 -5.501,2.463 -5.501,5.501 V -5.501 C -5.501,-2.463 -3.038,0 0,0"
             style="fill:#ffffff;fill-opacity:1;fill-rule:evenodd;stroke:none"
             id="path28" /></g><g
           id="g30"
           transform="translate(49.7537,50.5779)"><path
             d="m 0,0 c -0.938,-0.122 -4.603,2.159 -11.623,5.929 -6.123,3.288 -4.455,-1.383 -3.914,-2.661 0.076,-0.18 0.093,-0.378 0.045,-0.567 -0.231,-0.917 -0.372,-4.373 6.76,-11.971 0.285,-0.303 0.404,-0.607 0.181,-0.958 -0.051,-0.082 -0.078,-0.127 -0.078,-0.127 C -9.606,-11.921 0.719,0.578 0,0"
             style="fill:#607d93;fill-opacity:1;fill-rule:evenodd;stroke:none"
             id="path32" /></g><g
           id="g34"
           transform="translate(49.7537,50.5779)"><path
             d="m 0,0 c -0.901,0.195 -1.172,0.399 -4.339,7.719 -2.37,5.476 -4.656,0.286 -4.602,-1.103 0.007,-0.195 -0.046,-0.387 -0.157,-0.546 -0.54,-0.774 -3.346,-5.072 0.641,-14.708 0.159,-0.384 0.13,-1.202 -0.094,-1.59 -0.051,-0.082 -0.078,-0.127 -0.078,-0.127 C -9.606,-11.921 0.719,0.578 0,0"
             style="fill:#a0bfd2;fill-opacity:1;fill-rule:evenodd;stroke:none"
             id="path36" /></g><g
           id="g38"
           transform="translate(49.7359,50.5833)"><path
             d="m 0,0 c -0.849,-0.11 -3.957,1.759 -9.735,4.905 -0.845,-1.931 -1.777,-6.16 1.278,-13.543 0.159,-0.384 0.13,-1.202 -0.094,-1.59 -0.051,-0.082 -0.078,-0.127 -0.078,-0.127 C -9.606,-11.921 0.719,0.578 0,0"
             style="fill:#335065;fill-opacity:1;fill-rule:evenodd;stroke:none"
             id="path40" /></g><g
           id="g42"
           transform="translate(57.7917,51.6747)"><path
             d="m 0,0 c -1.008,0.094 -1.808,1.774 -3.552,1.774 -1.827,0 -3.767,-2.293 -4.486,-2.871 -1.038,-0.648 -6.599,-0.697 -14.823,-1.273 -7.276,-0.509 -4.562,-2.464 -3.724,-2.968 0.117,-0.07 0.175,-0.174 0.16,-0.296 -0.072,-0.596 0.893,-3.234 9.45,-4.979 0.802,-0.164 0.308,-0.838 0.308,-0.838 -0.977,-1.567 -4.229,-7.048 -5.269,-11.889 -0.211,-0.983 0.754,1.453 4.745,4.844 3.991,3.39 7.985,2.794 11.547,7.432 3.562,4.638 1.808,7.866 5.644,8.864 L 8.801,0 C 8.801,0 0.095,-0.009 0,0"
             style="fill:#1f2b3d;fill-opacity:1;fill-rule:evenodd;stroke:none"
             id="path44" /></g></g></g></g></svg>
