<?xml version="1.0" encoding="UTF-8"?><svg id="_이어_2" xmlns="http://www.w3.org/2000/svg" xmlns:xlink="http://www.w3.org/1999/xlink" viewBox="0 0 487.599 134.353"><defs><style>.cls-1{fill:#fff;}.cls-2{fill:#909090;}.cls-3{fill:url(#_제_그라디언트_12);}.cls-4{opacity:.5;}.cls-5{fill:url(#_제_그라디언트_12-4);}.cls-6{fill:url(#_제_그라디언트_12-3);}.cls-7{fill:url(#_제_그라디언트_12-2);}.cls-8{fill:url(#_제_그라디언트_12-7);}.cls-9{fill:url(#_제_그라디언트_12-5);}.cls-10{fill:url(#_제_그라디언트_12-6);}.cls-11{fill:#010101;opacity:.4;}</style><linearGradient id="_제_그라디언트_12" x1="-2.89" y1="67.109" x2="137.55" y2="67.109" gradientTransform="matrix(1, 0, 0, 1, 0, 0)" gradientUnits="userSpaceOnUse"><stop offset="0" stop-color="#f6b74c"/><stop offset="1" stop-color="#da2d43"/></linearGradient><linearGradient id="_제_그라디언트_12-2" x1="-2.89" y1="15.183" x2="137.55" y2="15.183" xlink:href="#_제_그라디언트_12"/><linearGradient id="_제_그라디언트_12-3" x1="-2.89" y1="87.128" x2="137.55" y2="87.128" xlink:href="#_제_그라디언트_12"/><linearGradient id="_제_그라디언트_12-4" y1="34.849" x2="137.55" y2="34.849" xlink:href="#_제_그라디언트_12"/><linearGradient id="_제_그라디언트_12-5" x1="137.982" y1="100.935" x2="324.633" y2="100.935" xlink:href="#_제_그라디언트_12"/><linearGradient id="_제_그라디언트_12-6" x1="137.982" y1="100.935" x2="324.633" y2="100.935" xlink:href="#_제_그라디언트_12"/><linearGradient id="_제_그라디언트_12-7" x1="137.982" y1="100.936" x2="324.633" y2="100.936" xlink:href="#_제_그라디언트_12"/></defs><g id="_이어_1-2"><g><g><path class="cls-3" d="M124.805,134.219c-5.275,0-17.449-10.062-7.304-26.497,9.15-14.823,4.987-25.906,4.083-27.938-.043-.09-.082-.179-.124-.268-.021-.042-.035-.071-.035-.071h.003c-2.732-5.842-3.989-11.53-4.508-14.55-.226-1.444-.313-2.331-.313-2.331-.004,.032-.007,.068-.012,.1,.007-.063,.012-.1,.012-.1,0,0-.338,.577-.67,1.706-1.92,5.608-.939,10.877,.002,13.813,.064,.202,2.372,7.665-4.839,12.329-2.519,1.319-5.595,1.743-8.795,.85-6.564-1.942-8.033-9.147-8.058-9.269-.564-4.134,1.155-7.906,4.093-10.281l.005-.005c.109-.088,.22-.174,.332-.258,11.344-8.903,8.343-29.516,8.343-29.516,0,0-.023,.099-.072,.282l.072-.282c-6.224,20.11-22.344,25.159-22.344,25.159,2.764-16.309-8.747-28.196-8.747-28.196-1.768-2.246-3.94-4.287-6.613-5.982C51.192,21.421,63.589,0,63.589,0c0,0-32.743,21.326-15.006,42.448l-.002,.005c2.33,2.301,3.769,5.437,3.769,8.899,0,7.057-5.963,12.777-13.318,12.777s-13.318-5.72-13.318-12.777c0-3.392,1.381-6.472,3.629-8.759,.684-.62,1.427-1.233,2.241-1.835,0,0-22.324,10.825-10.446,38.326,8.169,18.913-4.484,37.868-13.185,47.863-2.003,2.28-5.192,5.627-7.953,7.271H9.93l.021-.036H62.728v.036h11.553v-.036h39.884v.036h10.639Z"/><path class="cls-7" d="M75.89,27.501c-6.013-12.336,5.499-24.634,5.499-24.634-20.363,10.668-5.499,24.634-5.499,24.634Z"/><path class="cls-6" d="M1.156,68.391s10.298,14.802,13.027,37.474c0,0,8.085-22.451-13.027-37.474Z"/><path class="cls-5" d="M90.766,50.09c.548-.478,5.67-5.07,4.877-9.017,0,0,2.719,5.168-5.24,13.252,0,0,14.646-7.273,6.88-20.161,0,0-3.506-5.127-6.944-6.89-3.438-1.763-4.83-6.359-4.112-11.901,0,0-4.68,9.068,1.85,20.444,6.088,10.606,3.12,13.878,2.69,14.273Z"/></g><polygon class="cls-1" points="16.085 134.331 16.072 134.353 111.946 134.353 101.965 117.065 16.085 134.331"/><polygon class="cls-1" points="34.355 102.687 21.248 125.388 97.827 109.898 87.495 92.004 34.355 102.687"/><g><polygon class="cls-1" points="72.217 65.541 64.009 51.324 53.752 69.091 72.217 65.541"/><polygon class="cls-1" points="49.079 77.185 39.497 93.78 83.503 85.089 75.764 71.684 49.079 77.185"/></g><polygon class="cls-11" points="21.248 125.388 33.286 130.869 101.965 117.065 88.808 111.722 21.248 125.388"/><polygon class="cls-11" points="87.495 92.004 78.213 86.146 39.497 93.78 48.284 99.887 87.495 92.004"/><polygon class="cls-11" points="75.764 71.684 69.808 66.004 53.752 69.091 59.065 75.126 75.764 71.684"/><g class="cls-4"><polygon class="cls-11" points="92 119.068 77.727 121.937 80.17 134.353 98.4 134.353 92 119.068"/><polygon class="cls-11" points="81.197 93.27 72.432 95.032 76.218 114.269 88.808 111.722 81.197 93.27"/><polygon class="cls-11" points="64.009 51.324 66.84 66.574 69.808 66.004 64.009 51.324"/><polygon class="cls-11" points="73.838 86.994 78.213 86.146 72.444 72.368 68.147 73.254 70.963 87.565 73.838 86.994 73.838 86.994"/></g><g><path class="cls-9" d="M184.93,96.885c-3.236-1.182-7.637-2.388-13.08-3.585-6.349-1.396-9.108-2.607-10.305-3.377-1.335-.858-1.957-2.089-1.957-3.873,0-2.065,.868-3.621,2.731-4.898,2.07-1.418,5.141-2.137,9.129-2.137,10.644,0,12.438,5.16,12.861,9.042l.21,1.926h11.988l-.096-2.254c-.276-6.42-2.797-11.478-7.495-15.033-4.545-3.437-10.533-5.18-17.798-5.18-6.96,0-12.666,1.741-16.957,5.175-4.438,3.55-6.688,8.17-6.688,13.728,0,4.979,1.77,9.037,5.26,12.065,3.322,2.884,8.508,5.044,15.853,6.605,6.684,1.422,11.411,2.858,14.05,4.267,2.118,1.131,3.105,2.831,3.105,5.351,0,2.451-1.001,4.265-3.15,5.712-2.359,1.59-5.596,2.395-9.617,2.395-4.283,0-7.96-.972-10.93-2.891-2.777-1.794-4.298-4.536-4.65-8.382l-.179-1.964h-11.925l.082,2.24c.241,6.569,2.72,12.035,7.369,16.244,4.609,4.174,11.528,6.291,20.563,6.291,7.14,0,13.05-1.902,17.566-5.653,4.635-3.849,6.986-8.766,6.986-14.61,0-4.639-1.331-8.428-3.957-11.262-2.478-2.674-5.495-4.674-8.968-5.943Z"/><path class="cls-10" d="M232.229,78.685c4.032,0,7.389,.991,9.974,2.944,2.494,1.886,3.842,4.363,4.119,7.575l.171,1.975h12.617l-.237-2.375c-.636-6.391-3.539-11.613-8.627-15.52-4.984-3.827-11.073-5.766-18.099-5.766-9.145,0-16.571,3.076-22.074,9.142-5.447,6.006-8.209,14.174-8.209,24.276s2.762,18.272,8.209,24.277c5.502,6.066,12.929,9.141,22.074,9.141,7.309,0,13.474-1.931,18.324-5.739,4.948-3.886,7.775-9.415,8.405-16.434l.211-2.354h-12.586l-.177,1.968c-.333,3.707-1.686,6.453-4.138,8.396-2.51,1.989-5.915,2.997-10.121,2.997-5.454,0-9.633-1.824-12.776-5.577-3.195-3.814-4.815-9.423-4.815-16.674s1.632-12.886,4.85-16.685c3.171-3.745,7.393-5.565,12.907-5.565Z"/><polygon class="cls-8" points="306.762 68.549 289.176 116.291 271.591 68.549 258.389 68.549 283.574 133.323 294.778 133.323 319.963 68.549 306.762 68.549"/></g><path class="cls-2" d="M353.968,105.82c-2.367-.864-5.575-1.744-9.533-2.614-4.504-.99-6.431-1.83-7.255-2.36-.799-.514-1.14-1.2-1.14-2.297,0-1.295,.528-2.234,1.714-3.047,1.394-.956,3.501-1.44,6.261-1.44,7.133,0,8.398,3.209,8.703,6.004l.21,1.926h9.828l-.096-2.254c-.208-4.829-2.11-8.637-5.656-11.32-3.391-2.565-7.841-3.865-13.228-3.865-5.171,0-9.422,1.303-12.634,3.872-3.356,2.686-5.058,6.183-5.058,10.392,0,3.779,1.349,6.866,4.009,9.175,2.48,2.152,6.317,3.757,11.729,4.908,4.778,1.016,8.142,2.035,10,3.027,1.334,.712,1.928,1.742,1.928,3.34,0,1.555-.639,2.709-2.012,3.633-1.606,1.081-3.833,1.629-6.62,1.629-2.979,0-5.528-.671-7.577-1.996-1.843-1.189-2.853-3.025-3.09-5.609l-.179-1.964h-9.79l.083,2.24c.18,4.917,2.039,9.01,5.523,12.165,3.446,3.12,8.582,4.703,15.268,4.703,5.305,0,9.707-1.422,13.081-4.225,3.496-2.902,5.267-6.611,5.267-11.023,0-3.509-1.016-6.385-3.02-8.549-1.858-2.005-4.118-3.502-6.717-4.451Z"/><path class="cls-2" d="M388.523,84.552c-6.73,0-12.333,2.314-16.654,6.876-4.289,4.529-6.464,10.545-6.464,17.882s2.175,13.327,6.463,17.865c4.322,4.574,9.925,6.892,16.656,6.892s12.296-2.315,16.598-6.88c4.267-4.528,6.431-10.543,6.431-17.878s-2.164-13.349-6.431-17.878c-4.303-4.565-9.887-6.88-16.598-6.88Zm12.715,24.758c0,4.989-1.222,8.874-3.633,11.551-2.386,2.649-5.376,3.936-9.141,3.936-3.726,0-6.702-1.292-9.096-3.951-2.42-2.686-3.648-6.567-3.648-11.536s1.231-8.87,3.658-11.545c2.406-2.653,5.417-3.942,9.205-3.942,3.704,0,6.659,1.286,9.035,3.934,2.402,2.677,3.621,6.564,3.621,11.554Z"/><polygon class="cls-2" points="448.725 85.298 448.666 85.298 414.921 85.298 414.921 133.323 425.026 133.323 425.026 113.528 445.566 113.528 445.566 104.019 425.026 104.019 425.026 94.807 448.666 94.807 448.725 94.807 463.006 94.807 463.006 133.323 473.14 133.323 473.14 94.807 487.599 94.807 487.599 85.298 448.725 85.298"/></g></g></svg>