<svg xmlns="http://www.w3.org/2000/svg" viewBox="0 0 425.37 85.02"><defs><style>.cls-1{fill:#17ce3a;}.cls-2{fill:#fff;}</style></defs><title>logo-blacktext</title><g id="레이어_2" data-name="레이어 2"><g id="레이어_1-2" data-name="레이어 1"><rect class="cls-1" x="269.85" width="155.52" height="85.02" rx="15.89"/><path class="cls-2" d="M306.68,58.89,321.21,26.1a5.65,5.65,0,0,1,5.35-3.63h.54a5.59,5.59,0,0,1,5.29,3.63l14.52,32.79a4.61,4.61,0,0,1,.48,1.85,4.33,4.33,0,0,1-4.26,4.4h-.07A4.68,4.68,0,0,1,338.65,62l-2.79-6.55H317.53l-2.92,6.84a4.49,4.49,0,0,1-4.23,2.86,4.21,4.21,0,0,1-4.22-4.21v-.07A4.81,4.81,0,0,1,306.68,58.89Zm25.77-11.54L326.68,33.6l-5.77,13.75Z"/><path class="cls-2" d="M350.06,44.08V44c0-11.84,8.93-21.54,21.72-21.54,6.25,0,10.48,1.66,13.93,4.22a4.6,4.6,0,0,1,1.78,3.63A4.45,4.45,0,0,1,383,34.73h0a4.81,4.81,0,0,1-2.74-.89,13.73,13.73,0,0,0-8.51-3c-7,0-12.08,5.83-12.08,13V44c0,7.14,4.94,13.08,12.07,13.08a13.35,13.35,0,0,0,9-3.27,4.25,4.25,0,0,1,5.68,6.32l-.2.17c-3.75,3.27-8.15,5.23-14.82,5.23A21,21,0,0,1,350.06,44.08Z"/><path d="M1.78,60.85A4.45,4.45,0,0,1,0,57.28a4.36,4.36,0,0,1,4.43-4.37,4.58,4.58,0,0,1,2.71.86,18.15,18.15,0,0,0,11,3.87c3.88,0,6.22-1.53,6.22-4.06v-.12c0-2.4-1.48-3.63-8.68-5.48C7,45.77,1.42,43.37,1.42,34.81v-.12c0-7.81,6.27-13,15.07-13a25,25,0,0,1,13.66,3.81,4.39,4.39,0,0,1-2.33,8.13,4.52,4.52,0,0,1-2.4-.68,17.91,17.91,0,0,0-9-2.89c-3.63,0-5.54,1.66-5.54,3.75V34c0,2.83,1.85,3.76,9.29,5.66C28.86,41.89,33.78,45,33.78,52.54v.12C33.78,61.21,27.26,66,18,66A27.86,27.86,0,0,1,1.78,60.85Z"/><path d="M38.89,44v-.12c0-12.25,9.66-22.28,23-22.28s22.83,9.91,22.83,22.16v.12c0,12.25-9.67,22.28-23,22.28S38.89,56.23,38.89,44Zm35.88,0v-.12c0-7.38-5.42-13.54-13-13.54s-12.92,6-12.92,13.42v.12c0,7.39,5.41,13.54,13.05,13.54S74.77,51.37,74.77,44Z"/><path d="M91.87,26.69a4.74,4.74,0,1,1,9.48,0V56.78h17.54a4.31,4.31,0,1,1,0,8.62H96.61a4.71,4.71,0,0,1-4.74-4.74Z"/><path d="M133.78,62.32l-14-33.41a5.87,5.87,0,0,1-.55-2.28A4.65,4.65,0,0,1,124,22a4.93,4.93,0,0,1,4.8,3.33l10.77,27.87L150.46,25A4.9,4.9,0,0,1,155,22a4.57,4.57,0,0,1,4.68,4.56,5.63,5.63,0,0,1-.49,2.09L145.1,62.32a5.56,5.56,0,0,1-5.35,3.76h-.62A5.57,5.57,0,0,1,133.78,62.32Z"/><path d="M165.72,60.66V27.06a4.7,4.7,0,0,1,4.74-4.74h23.87a4.26,4.26,0,0,1,4.25,4.25,4.2,4.2,0,0,1-4.25,4.18h-19.2v8.74h16.43a4.26,4.26,0,0,1,4.25,4.25,4.2,4.2,0,0,1-4.25,4.18H175.13v9h19.51a4.26,4.26,0,0,1,4.25,4.24,4.21,4.21,0,0,1-4.25,4.19H170.46A4.7,4.7,0,0,1,165.72,60.66Z"/><path d="M205.72,27.06a4.7,4.7,0,0,1,4.74-4.74h12.06c13.54,0,22.89,9.29,22.89,21.42v.12c0,12.12-9.35,21.54-22.89,21.54H210.46a4.7,4.7,0,0,1-4.74-4.74Zm16.8,29.79c7.75,0,13-5.24,13-12.87v-.12c0-7.63-5.23-13-13-13h-7.33v26Z"/><path d="M253.78,55.18a5.18,5.18,0,0,1,5.35,5.23v.13a5.36,5.36,0,0,1-10.71,0v-.13A5.18,5.18,0,0,1,253.78,55.18Z"/></g></g></svg>