<svg id="Layer_1" data-name="Layer 1" xmlns="http://www.w3.org/2000/svg" viewBox="0 0 1000 281.48"><defs><style>.cls-1{fill:#801fe8;}</style></defs><polygon class="cls-1" points="229.79 0 0.1 0 0.1 86.72 71.61 86.72 71.61 281.48 158.28 281.48 158.28 86.72 229.79 86.72 229.79 0"/><rect class="cls-1" x="635" width="86.67" height="281.48"/><polygon class="cls-1" points="538.19 0 504.36 167.94 432.38 63.29 360.28 168.11 326.41 0 239.74 0 296.45 281.48 383.27 281.48 432.38 202.91 481.48 281.48 568.15 281.48 624.86 0 538.19 0"/><path class="cls-1" d="M879.78,0H740.72V281.48h86.67v-41h52.39A120.22,120.22,0,1,0,879.78,0Zm0,153.77H827.39V86.67h52.39a33.55,33.55,0,1,1,0,67.1Z"/></svg>