<?xml version="1.0" encoding="UTF-8"?><svg xmlns="http://www.w3.org/2000/svg" viewBox="0 0 984.293 190.393"><defs><style>.d{fill:#ffb839;}</style></defs><g id="a"/><g id="b"><g id="c"><g><path class="d" d="M66.51,137.587c4.751,0,8.999-.79,12.745-2.375,3.746-1.583,6.912-3.806,9.501-6.669,2.588-2.862,4.568-6.334,5.938-10.415,1.371-4.08,2.056-8.648,2.056-13.704V25.306h24.576V104.424c0,7.856-1.265,15.12-3.792,21.789-2.528,6.669-6.167,12.425-10.917,17.268-4.75,4.842-10.506,8.618-17.267,11.328-6.76,2.709-14.375,4.065-22.84,4.065s-16.079-1.356-22.84-4.065c-6.761-2.71-12.502-6.486-17.221-11.328-4.721-4.843-8.345-10.599-10.872-17.268-2.528-6.669-3.791-13.933-3.791-21.789V25.306h24.576V104.332c0,5.057,.685,9.624,2.056,13.704,1.37,4.081,3.334,7.568,5.893,10.461,2.558,2.894,5.71,5.132,9.456,6.715,3.746,1.585,7.994,2.375,12.745,2.375Z"/><path class="d" d="M240.824,126.259c1.339,0,2.496,.518,3.472,1.553l9.684,10.507c-5.36,6.639-11.953,11.725-19.779,15.257-7.827,3.533-17.221,5.299-28.185,5.299-9.807,0-18.623-1.675-26.448-5.025-7.827-3.349-14.512-8.008-20.054-13.978-5.543-5.968-9.791-13.095-12.745-21.378-2.955-8.282-4.431-17.327-4.431-27.134,0-9.927,1.645-19.018,4.934-27.271,3.289-8.252,7.917-15.362,13.887-21.332,5.968-5.969,13.11-10.612,21.424-13.933,8.313-3.318,17.495-4.979,27.545-4.979,9.806,0,18.378,1.568,25.718,4.705,7.339,3.138,13.627,7.294,18.866,12.47l-8.223,11.421c-.488,.73-1.112,1.37-1.873,1.918-.762,.548-1.812,.822-3.151,.822-1.402,0-2.833-.548-4.294-1.645-1.462-1.096-3.32-2.284-5.573-3.562-2.254-1.279-5.102-2.467-8.542-3.563-3.441-1.097-7.812-1.645-13.11-1.645-6.213,0-11.923,1.082-17.13,3.243-5.208,2.163-9.684,5.254-13.43,9.273-3.746,4.02-6.669,8.907-8.771,14.663-2.101,5.756-3.152,12.228-3.152,19.414,0,7.432,1.051,14.039,3.152,19.825,2.102,5.787,4.948,10.659,8.542,14.617,3.593,3.96,7.825,6.989,12.699,9.091,4.872,2.101,10.109,3.151,15.714,3.151,3.349,0,6.379-.183,9.09-.548,2.71-.365,5.208-.943,7.491-1.736,2.284-.79,4.445-1.812,6.487-3.061,2.04-1.247,4.065-2.786,6.075-4.613,.608-.548,1.247-.989,1.918-1.325,.67-.334,1.4-.502,2.193-.502Z"/><path class="d" d="M301.575,110.91v46.502h-24.575V25.306h43.03c8.83,0,16.475,1.037,22.931,3.106,6.456,2.071,11.786,4.965,15.988,8.68,4.203,3.716,7.309,8.162,9.318,13.338,2.011,5.178,3.016,10.842,3.016,16.993,0,6.396-1.066,12.258-3.198,17.587-2.132,5.33-5.33,9.912-9.593,13.75-4.264,3.837-9.593,6.821-15.987,8.953-6.396,2.133-13.887,3.197-22.475,3.197h-18.455Zm0-19.186h18.455c4.507,0,8.435-.562,11.785-1.69,3.349-1.126,6.121-2.74,8.313-4.842,2.193-2.102,3.838-4.659,4.934-7.674,1.097-3.016,1.645-6.38,1.645-10.096,0-3.531-.548-6.729-1.645-9.593-1.096-2.862-2.74-5.299-4.934-7.309-2.192-2.01-4.965-3.548-8.313-4.613-3.351-1.065-7.278-1.6-11.785-1.6h-18.455v47.416Z"/><path class="d" d="M484.844,126.259c1.339,0,2.496,.518,3.472,1.553l9.684,10.507c-5.36,6.639-11.953,11.725-19.779,15.257-7.827,3.533-17.221,5.299-28.185,5.299-9.807,0-18.623-1.675-26.448-5.025-7.827-3.349-14.512-8.008-20.054-13.978-5.543-5.968-9.791-13.095-12.744-21.378-2.955-8.282-4.432-17.327-4.432-27.134,0-9.927,1.645-19.018,4.934-27.271,3.289-8.252,7.917-15.362,13.887-21.332s13.11-10.612,21.424-13.933c8.313-3.318,17.495-4.979,27.545-4.979,9.806,0,18.378,1.568,25.718,4.705,7.339,3.138,13.627,7.294,18.866,12.47l-8.223,11.421c-.488,.73-1.112,1.37-1.873,1.918-.762,.548-1.812,.822-3.151,.822-1.402,0-2.833-.548-4.294-1.645-1.462-1.096-3.32-2.284-5.573-3.562-2.254-1.279-5.102-2.467-8.542-3.563-3.441-1.097-7.812-1.645-13.11-1.645-6.213,0-11.923,1.082-17.13,3.243-5.208,2.163-9.685,5.254-13.43,9.273-3.746,4.02-6.67,8.907-8.771,14.663-2.102,5.756-3.152,12.228-3.152,19.414,0,7.432,1.051,14.039,3.152,19.825,2.101,5.787,4.947,10.659,8.542,14.617,3.593,3.96,7.825,6.989,12.699,9.091,4.872,2.101,10.109,3.151,15.714,3.151,3.349,0,6.379-.183,9.09-.548,2.71-.365,5.208-.943,7.491-1.736,2.284-.79,4.445-1.812,6.487-3.061,2.04-1.247,4.065-2.786,6.075-4.613,.608-.548,1.247-.989,1.918-1.325,.67-.334,1.4-.502,2.193-.502Z"/><path class="d" d="M600.775,23.845c6.089,0,11.662,.899,16.719,2.694,5.055,1.798,9.378,4.34,12.973,7.629,3.593,3.289,6.396,7.249,8.405,11.877,2.01,4.629,3.015,9.775,3.015,15.439,0,4.874-.717,9.38-2.146,13.521-1.432,4.143-3.351,8.101-5.756,11.877-2.407,3.777-5.224,7.432-8.451,10.963-3.229,3.533-6.609,7.126-10.141,10.78l-29.783,30.423c2.924-.852,5.785-1.507,8.588-1.964,2.801-.457,5.481-.686,8.039-.686h33.895c2.436,0,4.37,.686,5.802,2.056,1.431,1.37,2.146,3.184,2.146,5.436v13.521h-90.629v-7.491c0-1.522,.32-3.106,.96-4.751s1.658-3.166,3.061-4.567l40.106-40.198c3.349-3.411,6.35-6.67,8.999-9.776,2.649-3.105,4.872-6.181,6.669-9.227,1.796-3.045,3.167-6.136,4.111-9.273,.944-3.136,1.416-6.44,1.416-9.912,0-3.167-.456-5.953-1.37-8.359-.913-2.405-2.224-4.432-3.929-6.076s-3.731-2.878-6.075-3.7c-2.346-.821-4.979-1.232-7.902-1.232-5.422,0-9.883,1.37-13.385,4.11-3.503,2.741-5.954,6.427-7.354,11.055-.671,2.315-1.676,3.975-3.015,4.979-1.34,1.005-3.046,1.507-5.116,1.507-.913,0-1.918-.091-3.015-.273l-11.877-2.102c.914-6.334,2.68-11.891,5.299-16.673,2.618-4.781,5.893-8.771,9.821-11.969,3.929-3.197,8.436-5.603,13.521-7.217,5.085-1.613,10.552-2.421,16.399-2.421Z"/><path class="d" d="M756.814,91.359c0,11.511-1.233,21.515-3.7,30.012-2.467,8.496-5.878,15.517-10.232,21.059s-9.501,9.669-15.439,12.379c-5.938,2.709-12.35,4.065-19.231,4.065s-13.263-1.356-19.139-4.065c-5.878-2.71-10.979-6.837-15.303-12.379-4.325-5.542-7.706-12.562-10.141-21.059-2.438-8.497-3.654-18.501-3.654-30.012,0-11.571,1.217-21.591,3.654-30.058,2.435-8.465,5.815-15.47,10.141-21.013,4.324-5.541,9.425-9.668,15.303-12.379,5.876-2.71,12.256-4.065,19.139-4.065s13.293,1.355,19.231,4.065c5.938,2.711,11.085,6.838,15.439,12.379,4.354,5.543,7.766,12.548,10.232,21.013,2.467,8.467,3.7,18.486,3.7,30.058Zm-23.297,0c0-9.562-.7-17.479-2.101-23.754-1.402-6.272-3.275-11.267-5.619-14.982-2.346-3.715-5.04-6.318-8.085-7.812-3.047-1.492-6.213-2.238-9.502-2.238-3.229,0-6.35,.746-9.364,2.238-3.015,1.493-5.68,4.097-7.994,7.812-2.315,3.716-4.156,8.71-5.527,14.982-1.37,6.274-2.056,14.192-2.056,23.754s.686,17.481,2.056,23.753c1.371,6.274,3.212,11.27,5.527,14.983,2.314,3.716,4.979,6.319,7.994,7.812,3.015,1.493,6.136,2.238,9.364,2.238,3.289,0,6.455-.745,9.502-2.238,3.045-1.492,5.739-4.096,8.085-7.812,2.344-3.714,4.217-8.709,5.619-14.983,1.4-6.271,2.101-14.19,2.101-23.753Z"/><path class="d" d="M789.611,140.511h26.768V63.494c0-2.983,.092-6.121,.274-9.41l-19.003,15.897c-.792,.671-1.599,1.127-2.421,1.37-.822,.244-1.63,.365-2.421,.365-1.219,0-2.33-.258-3.335-.776-1.005-.517-1.751-1.11-2.238-1.781l-7.126-9.775,40.29-34.261h18.546v115.388h23.754v16.901h-73.088v-16.901Z"/><path class="d" d="M923.084,104.698c-4.568,0-9.045-.791-13.43-2.376-4.386-1.583-8.3-3.974-11.74-7.172-3.441-3.197-6.198-7.156-8.268-11.877-2.071-4.719-3.106-10.246-3.106-16.581,0-5.907,1.096-11.45,3.289-16.628,2.192-5.176,5.268-9.714,9.227-13.612,3.959-3.897,8.71-6.974,14.253-9.228,5.541-2.253,11.662-3.38,18.363-3.38,6.761,0,12.836,1.066,18.226,3.197,5.391,2.133,9.988,5.116,13.796,8.953,3.806,3.837,6.729,8.437,8.771,13.796,2.04,5.359,3.061,11.236,3.061,17.632,0,4.081-.352,7.948-1.051,11.603-.701,3.654-1.706,7.172-3.015,10.553-1.311,3.38-2.878,6.669-4.705,9.866-1.827,3.198-3.869,6.411-6.121,9.639l-30.24,43.122c-1.036,1.461-2.574,2.694-4.613,3.699-2.042,1.005-4.371,1.508-6.989,1.508h-20.739l41.021-51.253c1.035-1.278,2.011-2.526,2.924-3.745,.914-1.218,1.796-2.436,2.649-3.654-3.046,1.949-6.396,3.426-10.05,4.431s-7.491,1.508-11.511,1.508Zm30.788-39.56c0-3.593-.548-6.806-1.645-9.638-1.097-2.833-2.649-5.223-4.659-7.172s-4.401-3.44-7.172-4.477c-2.772-1.035-5.802-1.554-9.091-1.554-3.411,0-6.486,.564-9.227,1.69-2.741,1.128-5.07,2.695-6.989,4.705s-3.396,4.4-4.431,7.172c-1.037,2.771-1.554,5.801-1.554,9.09,0,7.37,1.903,12.989,5.71,16.856,3.806,3.868,9.212,5.801,16.217,5.801,3.654,0,6.897-.578,9.729-1.735,2.832-1.156,5.222-2.741,7.172-4.751,1.948-2.01,3.426-4.386,4.431-7.126,1.005-2.741,1.508-5.694,1.508-8.862Z"/></g></g></g></svg>