<svg xmlns="http://www.w3.org/2000/svg" viewBox="0 0 598.681 200"><defs><style>.cls-1{fill:#d300ff;}.cls-2{fill:none;}.cls-3{fill:#2c3144;}.cls-4{fill:#f90;}.cls-5{fill:#fff;}</style></defs><g id="레이어_2" data-name="레이어 2"><g id="레이어_1-2" data-name="레이어 1"><path class="cls-1" d="M34.144,96.953c.2.155.416.3.623.448a12.634,12.634,0,0,1-1.807-1.117l-.008-.006c-.253-.189-.493-.389-.725-.595-.023-.02-.049-.039-.072-.059-.25-.227-.489-.463-.714-.71a17.64,17.64,0,0,1-1.287-1.588A33.834,33.834,0,0,0,34.144,96.953Z"/><path class="cls-2" d="M418.639,133.6c-.483-.783-.936-1.6-1.369-2.433-.4-.759-.778-1.548-1.144-2.345l-6.077,6.076,12.94,4.466c-.5-.548-1-1.11-1.475-1.7A39.011,39.011,0,0,1,418.639,133.6Z"/><path class="cls-2" d="M378.264,104.815q.466-.535.9-1.05c.291-.347.574-.688.842-1.02a56.95,56.95,0,0,0,4.806-6.751q.245-.417.46-.814a20.016,20.016,0,0,0,2.149-5.3,19.107,19.107,0,0,0,.421-3.653,11.966,11.966,0,0,0-.463-3.266,10.83,10.83,0,0,0-1.39-3.03,9.841,9.841,0,0,0-2.234-2.394,6.9,6.9,0,0,0-.682-.46,7.866,7.866,0,0,0-2.393-.913,8.385,8.385,0,0,0-.828-.136c-.082-.009-.158-.008-.238-.015-.183-.015-.367-.031-.542-.031-.021,0-.04,0-.061,0a5.71,5.71,0,0,0-.893.082c-.077.013-.154.027-.229.043a4.676,4.676,0,0,0-.852.259c-.01,0-.019.01-.029.015a4.444,4.444,0,0,0-.738.418c-.062.042-.122.086-.182.131a4.968,4.968,0,0,0-.674.606,6.569,6.569,0,0,0-.992,1.476,9.662,9.662,0,0,0-.9,4.359q0,.528.063,1.309t.189,1.816h0L360.158,83.6l-18.509,18.509h0l-6.91,6.8,29.206,10.079,9.683-9.684Z"/><path class="cls-2" d="M44.852,51.907q0,4.1.258,8.543a33.642,33.642,0,0,0,1.541,8.426,18.449,18.449,0,0,0,3.941,6.887,11.838,11.838,0,0,0,3.887,2.752c0-.187.008-.37.008-.558V50.419L44.852,36.672Z"/><path class="cls-1" d="M279.038,89.689l-.875-.3c.058.334.122.665.176,1Z"/><polygon class="cls-1" points="99.343 55.017 99.339 55.018 99.339 55.022 99.343 55.017"/><polygon class="cls-3" points="354.479 128.456 354.477 128.458 405.622 139.329 405.622 139.329 405.622 139.329 410.049 134.902 363.945 118.991 354.479 128.456"/><path class="cls-3" d="M427.15,143.186a26.91,26.91,0,0,0,10.911,5.054c.459.1.914.179,1.365.25.144.022.287.038.431.058.3.043.609.082.911.112.167.017.334.029.5.042q.416.033.827.05c.169.007.337.011.5.014.111,0,.224.01.335.01s.224-.012.337-.013q.447-.007.887-.035c.2-.012.393-.025.588-.043.3-.027.591-.064.883-.1.183-.025.367-.048.549-.079.316-.054.627-.121.938-.19.152-.034.305-.062.456-.1.19-.048.375-.111.564-.165l-25.148-8.678A32.923,32.923,0,0,0,427.15,143.186Z"/><polygon class="cls-3" points="44.852 8.87 19.151 0 44.852 36.672 44.852 8.87"/><path class="cls-3" d="M135.187,145.066c.672.143,1.35.266,2.032.375.222.036.446.063.668.095.466.067.932.13,1.4.182.262.029.526.052.79.076.44.04.881.075,1.324.1.273.016.546.031.82.042.451.019.9.029,1.358.034.177,0,.35.013.527.013.112,0,.226-.005.339-.005.215,0,.432-.007.649-.012q.6-.012,1.2-.04c.222-.011.444-.021.667-.035.424-.025.85-.058,1.277-.095.194-.017.387-.031.582-.05.62-.061,1.242-.131,1.869-.215a24.743,24.743,0,0,0,14.135-6.85h0l4.795-4.8v60.65h0l25.7,5.463h0l19.151-19.151v-19.6q1.827.725,3.721,1.3c.025.007.05.013.075.021q.907.271,1.827.51.969.249,1.955.459h0c.684.145,1.358.265,2.025.37.212.033.421.058.631.087.457.063.912.12,1.361.164.238.023.474.042.709.06.426.032.847.054,1.265.069.227.008.454.017.679.019.115,0,.233.011.348.011.184,0,.36-.02.543-.023.472-.009.94-.027,1.4-.06.28-.019.558-.045.835-.073.451-.047.9-.106,1.338-.176.264-.041.529-.081.79-.131.468-.089.928-.2,1.385-.314.219-.056.441-.1.657-.164.663-.189,1.316-.4,1.956-.645l.007,0,.011-.005c.533-.2,1.055-.428,1.569-.662.2-.09.392-.188.588-.283.308-.148.614-.3.914-.458.247-.13.49-.266.732-.4s.456-.263.68-.4c.28-.169.557-.341.83-.519.153-.1.3-.207.456-.31a28.445,28.445,0,0,0,4.429-3.751h0v.01L265.205,138.8c.695-.588,1.36-1.222,2.007-1.884.148.677.31,1.349.481,2.017.082.317.17.631.256.946q.2.72.411,1.434c.081.266.16.533.244.8.232.733.474,1.463.736,2.185l0,.012a62.543,62.543,0,0,0,9.852,17.8q1.563,1.968,3.265,3.775.852.9,1.738,1.767,1.773,1.728,3.684,3.295.955.785,1.946,1.528,1.981,1.488,4.1,2.817a55.7,55.7,0,0,0,15.695,6.794q1.182.306,2.382.561c.672.143,1.35.265,2.033.375.221.035.444.062.666.094.466.068.933.131,1.4.183.262.028.525.051.788.075.44.04.881.075,1.325.1.273.016.546.031.82.042.451.019.9.029,1.358.035.176,0,.35.013.527.013.112,0,.226,0,.338-.006.216,0,.433-.007.65-.011q.6-.013,1.2-.041.333-.015.668-.034c.422-.026.847-.059,1.273-.1.2-.017.391-.031.587-.05.62-.061,1.242-.13,1.868-.215a25.932,25.932,0,0,0,3.541-.74c.768-.215,1.525-.453,2.26-.738a24.066,24.066,0,0,0,2.605-1.215,24.591,24.591,0,0,0,2.6-1.572,26.7,26.7,0,0,0,3.133-2.585h0L360.8,157.116l-16.962-23.9a17.222,17.222,0,0,1-5.312,3.945,11.231,11.231,0,0,1-7.367.58A23.713,23.713,0,0,1,316,127.883a31.66,31.66,0,0,1-5.4-18.514c0-.254.019-.489.024-.738.455.074.915.156,1.386.256q.492.1.977.24a17.627,17.627,0,0,1,6.39,3.376q.857.693,1.617,1.435t1.424,1.529a19.369,19.369,0,0,1,2.27,3.335h0l5.623-5.532,4.429-4.358-55.7-19.223-.7.7c-.054-.336-.118-.667-.176-1l-158.5-54.7c-.264.259-.532.515-.788.784l0-.01L101.008,53.347h0c-.563.526-1.111,1.07-1.638,1.639h0l-.03.031h0l0,0V27.673L68.268,16.951,54.487,30.733V50.419l59.894,85.46c.892.631,1.8,1.248,2.729,1.833A55.538,55.538,0,0,0,135.187,145.066ZM133.8,71.046c.455.074.915.157,1.386.257q.492.105.977.24a16.265,16.265,0,0,1,1.905.661q.468.2.929.421a18.848,18.848,0,0,1,3.556,2.293,20.7,20.7,0,0,1,5.312,6.3l16.962-16.689h0l4.795-4.8V99.305l-2.607-3.673a17.22,17.22,0,0,1-5.312,3.944,11.231,11.231,0,0,1-7.367.581A23.715,23.715,0,0,1,139.174,90.3a31.662,31.662,0,0,1-5.4-18.514C133.777,71.53,133.8,71.3,133.8,71.046Z"/><path class="cls-4" d="M54.487,77.957c0,.188-.007.371-.008.558a11.838,11.838,0,0,1-3.887-2.752,18.449,18.449,0,0,1-3.941-6.887A33.642,33.642,0,0,1,45.11,60.45q-.258-4.446-.258-8.543V36.672L19.151,0,0,19.151H0v52.3a137.331,137.331,0,0,0,1.114,18A50.129,50.129,0,0,0,4.251,101.67c.408,1.013.842,2,1.318,2.967a32.334,32.334,0,0,0,5.247,7.648,33.321,33.321,0,0,0,2.7,2.61q.719.621,1.478,1.209a30.52,30.52,0,0,0,5.08,3.159,40.584,40.584,0,0,0,6.116,2.421q1.106.342,2.27.643t2.384.56h0c.686.146,1.356.257,2.019.353.157.023.314.045.47.065.651.083,1.295.148,1.924.183.06,0,.118,0,.177,0,.383.018.764.033,1.138.033.185,0,.365-.013.548-.018.166,0,.331-.008.5-.016.608-.028,1.209-.072,1.8-.15.545-.073,1.071-.168,1.592-.269.26-.05.514-.107.768-.164a21.527,21.527,0,0,0,4.665-1.586q.771-.372,1.482-.794a16.954,16.954,0,0,0,3.743-2.974l3.856-3.855v12.09l24.673,5.245L96.2,115.028q.654,1.242,1.359,2.445l.051.087q.656,1.114,1.354,2.195c.058.089.113.18.171.268q.644.983,1.324,1.937c.092.13.18.263.274.392q.8,1.107,1.647,2.178a58.515,58.515,0,0,0,6.81,7.229q.921.823,1.877,1.608c1.071.878,2.182,1.709,3.319,2.512L54.487,50.419Z"/><polygon class="cls-4" points="68.268 16.951 99.339 27.673 99.339 17.045 73.638 11.582 68.268 16.951"/><path class="cls-4" d="M268.021,64.315a51.6,51.6,0,0,0-12.936-12.9,46.047,46.047,0,0,0-16.792-7.179,24.6,24.6,0,0,0-8.4-.419,27.675,27.675,0,0,0-7.281,1.965,23.3,23.3,0,0,0-9.852,7.858l-.343-.073V41.081l-23.646-5.026L182,42.831a42.879,42.879,0,0,0-12.155-10.313,55.838,55.838,0,0,0-15.506-6.125,44.232,44.232,0,0,0-18.077-.329,32.711,32.711,0,0,0-14.735,6.917c-.646.538-1.261,1.115-1.862,1.707l158.5,54.7a65.7,65.7,0,0,0-1.832-7.792A60.385,60.385,0,0,0,268.021,64.315Z"/><polygon class="cls-4" points="44.852 8.87 44.852 5.463 19.151 0 44.852 8.87"/><path class="cls-4" d="M596.7,104.759a48.973,48.973,0,0,0-5.519-13.216,34.8,34.8,0,0,0-8.511-9.534A26.992,26.992,0,0,0,571.8,76.964a20.226,20.226,0,0,0-10.911.415,19.154,19.154,0,0,0-8.51,5.916L538.664,97.012c.012-.358.026-.715.026-1.081a31.376,31.376,0,0,0-1.855-10.71,32.8,32.8,0,0,0-5.139-9.3,31.474,31.474,0,0,0-7.794-7.03,29.515,29.515,0,0,0-9.817-4.006,22.552,22.552,0,0,0-9.9-.089,16.957,16.957,0,0,0-7.794,4.1L482.648,82.642c-.166-.754-.342-1.5-.538-2.24a48.942,48.942,0,0,0-5.519-13.216,34.779,34.779,0,0,0-8.51-9.534,27,27,0,0,0-10.869-5.045,20.226,20.226,0,0,0-10.911.415,19.163,19.163,0,0,0-8.511,5.916L424.073,72.655c.013-.358.026-.715.026-1.081a31.376,31.376,0,0,0-1.854-10.71,32.776,32.776,0,0,0-5.139-9.3,31.494,31.494,0,0,0-7.794-7.031A29.524,29.524,0,0,0,399.5,40.53a22.571,22.571,0,0,0-9.9-.089,16.959,16.959,0,0,0-7.793,4.1L362.65,63.693a20.2,20.2,0,0,0-5.1,7.841c-.163.433-.314.877-.455,1.328-.023.075-.043.153-.066.228-.119.394-.231.793-.333,1.2-.013.049-.023.1-.035.149q-.165.671-.3,1.367l-.008.043c-.1.5-.18,1.005-.253,1.521h0a41.755,41.755,0,0,0-9.437-7.269,55.788,55.788,0,0,0-15.506-6.125,44.251,44.251,0,0,0-18.077-.33,32.723,32.723,0,0,0-14.735,6.918c-.712.592-1.388,1.227-2.047,1.882v-.022L279.038,89.689l55.7,19.223,6.91-6.8h0L360.158,83.6,373.772,86.5h0q-.126-1.035-.189-1.816t-.063-1.309a9.662,9.662,0,0,1,.9-4.359,6.569,6.569,0,0,1,.992-1.476,4.968,4.968,0,0,1,.674-.606c.06-.045.12-.089.182-.131a4.444,4.444,0,0,1,.738-.418c.01,0,.019-.011.029-.015a4.676,4.676,0,0,1,.852-.259c.075-.016.152-.03.229-.043a5.71,5.71,0,0,1,.893-.082c.021,0,.04,0,.061,0,.175,0,.359.016.542.031.08.007.156.006.238.015a8.385,8.385,0,0,1,.828.136,7.866,7.866,0,0,1,2.393.913,6.9,6.9,0,0,1,.682.46,9.841,9.841,0,0,1,2.234,2.394,10.83,10.83,0,0,1,1.39,3.03,11.966,11.966,0,0,1,.463,3.266,19.107,19.107,0,0,1-.421,3.653,20.016,20.016,0,0,1-2.149,5.3q-.216.4-.46.814a56.95,56.95,0,0,1-4.806,6.751c-.268.332-.551.673-.842,1.02s-.59.693-.9,1.05l-4.636,4.492-9.683,9.684,46.1,15.911,6.077-6.076c.366.8.741,1.586,1.144,2.345.433.835.886,1.65,1.369,2.433a39.011,39.011,0,0,0,2.875,4.065c.477.589.971,1.151,1.475,1.7l25.148,8.678c.262-.074.527-.142.786-.229l.007,0a18.427,18.427,0,0,0,1.854-.752,18.18,18.18,0,0,0,1.673-.873,18.927,18.927,0,0,0,4.076-3.308q.465-.5.907-1.031h0L473.8,125.492a20.235,20.235,0,0,0,2.792-2.792,30.778,30.778,0,0,0,5.519-10.918c.207-.694.392-1.41.567-2.136l5.686,1.209c-.038-.306-.069-.589-.1-.861-.1-.957-.155-1.715-.155-2.264a8.84,8.84,0,0,1,1.451-5.286,6.5,6.5,0,0,1,.445-.549,4.938,4.938,0,0,1,.672-.6q.091-.069.183-.132a4.563,4.563,0,0,1,.738-.419l.029-.014a4.663,4.663,0,0,1,.853-.259c.075-.016.151-.03.228-.043a5.581,5.581,0,0,1,.893-.082c.021,0,.04,0,.061,0,.176,0,.36.016.543.031.08.007.156.006.237.015a8.337,8.337,0,0,1,.828.136,7.587,7.587,0,0,1,3.076,1.373,9.774,9.774,0,0,1,1.211,1.1,10.078,10.078,0,0,1,1.022,1.3,10.83,10.83,0,0,1,1.39,3.03,11.922,11.922,0,0,1,.463,3.266,19.107,19.107,0,0,1-.421,3.653,19.965,19.965,0,0,1-2.149,5.3,36.242,36.242,0,0,1-1.925,3.109q-.261.381-.54.776c-.815,1.149-1.744,2.372-2.8,3.681-.269.332-.552.673-.843,1.02s-.59.693-.9,1.049h0l-4.636,4.492-19.151,19.151h0l51.145,10.871h0l10.48-10.555c.371.811.751,1.611,1.16,2.382.43.83.881,1.639,1.361,2.418.006.01.01.02.016.03a35.23,35.23,0,0,0,8.511,9.581c.556.427,1.126.821,1.7,1.2q.777.51,1.578.962.613.346,1.241.659t1.263.588a26.852,26.852,0,0,0,5.127,1.645c.46.1.914.18,1.365.251.144.022.287.038.431.058.306.043.611.082.912.112.167.017.332.029.5.042.278.021.555.039.829.05.169.006.337.011.505.014.111,0,.225.009.335.009s.224-.011.337-.013q.447-.007.888-.034c.2-.012.392-.025.587-.043.3-.027.591-.064.884-.1.183-.025.366-.048.548-.079.316-.054.627-.121.938-.19.152-.035.306-.063.456-.1.454-.114.9-.243,1.347-.392l.01,0a18.127,18.127,0,0,0,3.527-1.625q.555-.333,1.086-.7c.4-.281.789-.583,1.171-.9a20.374,20.374,0,0,0,2.727-2.735l16.359-16.36a20.338,20.338,0,0,0,2.792-2.791,30.8,30.8,0,0,0,5.519-10.918,53.513,53.513,0,0,0,1.98-15.269A62.784,62.784,0,0,0,596.7,104.759ZM411.737,95.108l0,.023q-.144.971-.256,1.977l0,.038q-.109,1.005-.188,2.043l0,.031q-.078,1.052-.122,2.135l-6.949-1.477,7.851-6.7Q411.884,94.126,411.737,95.108Zm114.591,24.354,0,.028q-.144.969-.255,1.972l0,.044q-.109,1-.187,2.036l0,.038q-.078,1.049-.122,2.132l-6.948-1.477,7.85-6.7Q526.474,118.482,526.328,119.462Z"/><path class="cls-5" d="M47.928,100.329A11.905,11.905,0,0,1,43,101.3a21.113,21.113,0,0,1-4.342-.5,15.871,15.871,0,0,1-8.667-4.559,20.5,20.5,0,0,1-4.36-7.609A35.771,35.771,0,0,1,24,79.714c-.172-2.99-.26-5.9-.26-8.656V26.205L1.964,21.577V71.449a135.988,135.988,0,0,0,1.1,17.737,46.537,46.537,0,0,0,4.269,14.58,30.79,30.79,0,0,0,8.864,10.784c3.8,2.942,8.869,5.1,15.056,6.416a25.745,25.745,0,0,0,5.32.6,19.715,19.715,0,0,0,2.58-.166,21.22,21.22,0,0,0,6.427-1.839,15.729,15.729,0,0,0,4.652-3.347,22.434,22.434,0,0,0,3.231-4.334l.708-1.259,1.413.3.342.072,1.556.331V124.2l20.745,4.409V37.786L56.451,33.158v44.8a75,75,0,0,1-.529,9.107A22.818,22.818,0,0,1,53.566,95,11.745,11.745,0,0,1,47.928,100.329Z"/><path class="cls-5" d="M143.791,73.392a23.665,23.665,0,0,1,4.448,4.7l13.989-13.764a41.627,41.627,0,0,0-12.5-10.949,54.071,54.071,0,0,0-14.954-5.917,46.836,46.836,0,0,0-9.7-1.067,38.4,38.4,0,0,0-7.578.741,30.917,30.917,0,0,0-13.867,6.5,33.754,33.754,0,0,0-9.3,12.878,48.161,48.161,0,0,0-3.439,18.952,60.27,60.27,0,0,0,3.481,20.586,60.893,60.893,0,0,0,9.542,17.249,56.406,56.406,0,0,0,14.241,12.741,53.879,53.879,0,0,0,17.442,7.1,41.064,41.064,0,0,0,8.513.876,47.5,47.5,0,0,0,6.323-.435,22.793,22.793,0,0,0,11.782-5.2l-14.627-20.609a19.492,19.492,0,0,1-4.177,2.714,11.7,11.7,0,0,1-5.144,1.121,16.845,16.845,0,0,1-3.487-.388,25.721,25.721,0,0,1-16.369-10.66,33.723,33.723,0,0,1-5.748-19.634c0-7.655,2.006-13.575,5.962-17.6a15.546,15.546,0,0,1,11.534-4.569,26.276,26.276,0,0,1,5.438.613A19.379,19.379,0,0,1,143.791,73.392Z"/><path class="cls-5" d="M247.262,84.6a49.868,49.868,0,0,0-12.446-12.411,44.33,44.33,0,0,0-16.082-6.873,24.661,24.661,0,0,0-5.1-.564,19.893,19.893,0,0,0-2.629.171,25.879,25.879,0,0,0-6.766,1.822,21.352,21.352,0,0,0-9.017,7.179l-.746,1.067-1.272-.271-.343-.073-1.556-.33V61.823l-19.717-4.192V192.946l21.772,4.628V142.935l2.373.5.343.072.859.183.437.763A31.591,31.591,0,0,0,208.1,155.845a44.882,44.882,0,0,0,14.365,5.764,31.973,31.973,0,0,0,6.612.737,22.8,22.8,0,0,0,8.21-1.457,26.409,26.409,0,0,0,11.091-8.1,41.153,41.153,0,0,0,7.186-13.842,60.041,60.041,0,0,0,2.567-17.875,68.068,68.068,0,0,0-2.828-19.759A58.72,58.72,0,0,0,247.262,84.6Zm-16.868,49.4a15.535,15.535,0,0,1-11.53,4.568,26.311,26.311,0,0,1-5.441-.613,25.72,25.72,0,0,1-16.37-10.66,33.722,33.722,0,0,1-5.747-19.633c0-7.656,2-13.576,5.961-17.6A15.545,15.545,0,0,1,208.8,85.486a26.34,26.34,0,0,1,5.438.612,25.728,25.728,0,0,1,16.369,10.66,33.741,33.741,0,0,1,5.748,19.634C236.356,124.049,234.35,129.97,230.394,133.99Z"/><path class="cls-5" d="M320.612,110.976a23.658,23.658,0,0,1,4.447,4.7l13.989-13.763a41.606,41.606,0,0,0-12.5-10.95A54.145,54.145,0,0,0,311.6,85.05a46.834,46.834,0,0,0-9.7-1.067,38.419,38.419,0,0,0-7.58.742,30.925,30.925,0,0,0-13.867,6.5,33.773,33.773,0,0,0-9.3,12.878,48.137,48.137,0,0,0-3.44,18.953,60.252,60.252,0,0,0,3.481,20.585,60.882,60.882,0,0,0,9.542,17.249,56.423,56.423,0,0,0,14.241,12.741,53.834,53.834,0,0,0,17.442,7.1,40.989,40.989,0,0,0,8.513.877,47.645,47.645,0,0,0,6.322-.435,22.809,22.809,0,0,0,11.783-5.195l-14.627-20.609a19.527,19.527,0,0,1-4.177,2.713,11.705,11.705,0,0,1-5.144,1.122,16.849,16.849,0,0,1-3.487-.389,25.717,25.717,0,0,1-16.369-10.66,33.72,33.72,0,0,1-5.747-19.633c0-7.655,2-13.576,5.96-17.6a15.549,15.549,0,0,1,11.535-4.568,26.34,26.34,0,0,1,5.438.612A19.391,19.391,0,0,1,320.612,110.976Z"/><path class="cls-5" d="M383.787,117.535l10.533-8.988a26.628,26.628,0,0,0,6.631-8.172,21.817,21.817,0,0,0,2.033-9.65,29.552,29.552,0,0,0-1.738-10.044,30.974,30.974,0,0,0-4.832-8.745,29.641,29.641,0,0,0-7.311-6.593,27.656,27.656,0,0,0-9.167-3.74,24.025,24.025,0,0,0-4.964-.554,17.9,17.9,0,0,0-4.08.456,15.091,15.091,0,0,0-6.908,3.629,18.356,18.356,0,0,0-4.594,7.094,28.277,28.277,0,0,0-1.654,8.853l13.836,2.941q-.017-.354-.016-.649a10.3,10.3,0,0,1,2.4-7.153,6.692,6.692,0,0,1,5.1-2.2,9.856,9.856,0,0,1,2.031.225,9.577,9.577,0,0,1,3.859,1.734,11.835,11.835,0,0,1,2.677,2.867,12.834,12.834,0,0,1,1.644,3.58,13.966,13.966,0,0,1,.538,3.8,20.925,20.925,0,0,1-.458,4.036A21.624,21.624,0,0,1,387,96.116a54.444,54.444,0,0,1-5.464,7.863A125.731,125.731,0,0,1,371.6,114.6l-13.111,12.7,45.167,9.6V124.99l-19-4.039-3.9-.829Z"/><path class="cls-5" d="M455.768,87.367a33,33,0,0,0-8.029-9,25.173,25.173,0,0,0-10.087-4.686,21.945,21.945,0,0,0-4.538-.5,16.442,16.442,0,0,0-5.328.857,17.3,17.3,0,0,0-7.648,5.327,27.949,27.949,0,0,0-5.178,10.153,51.776,51.776,0,0,0-1.9,14.707,61.065,61.065,0,0,0,1.914,15.608,47.226,47.226,0,0,0,5.334,12.744,33.435,33.435,0,0,0,8.035,9.056,25.072,25.072,0,0,0,10.124,4.691,21.586,21.586,0,0,0,4.466.493,16.42,16.42,0,0,0,12.991-6.211,29,29,0,0,0,5.152-10.229,51.832,51.832,0,0,0,1.9-14.707,61.138,61.138,0,0,0-1.914-15.608A47.256,47.256,0,0,0,455.768,87.367Zm-6.008,33.781a26.22,26.22,0,0,1-2.289,6.884,10.965,10.965,0,0,1-4.076,4.543,7.7,7.7,0,0,1-3.947,1.083,8.716,8.716,0,0,1-1.8-.194,10.477,10.477,0,0,1-5.382-3.068,19.285,19.285,0,0,1-3.718-5.75,35.27,35.27,0,0,1-2.281-7.7,51.093,51.093,0,0,1-.791-9.252,46.117,46.117,0,0,1,.8-8.906,24.332,24.332,0,0,1,2.353-6.918,11.481,11.481,0,0,1,4.035-4.444,7.518,7.518,0,0,1,3.943-1.095,8.945,8.945,0,0,1,1.862.2A10.545,10.545,0,0,1,443.8,89.58a18.579,18.579,0,0,1,3.734,5.722,35.758,35.758,0,0,1,2.235,7.688,51.265,51.265,0,0,1,.791,9.2A45.858,45.858,0,0,1,449.76,121.148Z"/><path class="cls-5" d="M498.378,141.892,508.91,132.9a26.628,26.628,0,0,0,6.631-8.172,21.817,21.817,0,0,0,2.033-9.65,29.552,29.552,0,0,0-1.738-10.044A30.974,30.974,0,0,0,511,96.293a29.655,29.655,0,0,0-7.31-6.593,27.67,27.67,0,0,0-9.168-3.74,24.025,24.025,0,0,0-4.964-.554,17.907,17.907,0,0,0-4.08.455,15.094,15.094,0,0,0-6.907,3.63,18.347,18.347,0,0,0-4.595,7.094,28.277,28.277,0,0,0-1.653,8.853l13.835,2.941q-.016-.354-.016-.649a10.3,10.3,0,0,1,2.4-7.153,6.689,6.689,0,0,1,5.1-2.2,9.864,9.864,0,0,1,2.031.225,9.579,9.579,0,0,1,3.858,1.734,11.835,11.835,0,0,1,2.677,2.867,12.834,12.834,0,0,1,1.644,3.58,13.963,13.963,0,0,1,.539,3.8,20.856,20.856,0,0,1-.459,4.036,21.662,21.662,0,0,1-2.349,5.854,54.58,54.58,0,0,1-5.464,7.863,126.064,126.064,0,0,1-9.933,10.62l-13.111,12.7,45.166,9.6V149.347l-19-4.039-3.9-.829Z"/><path class="cls-5" d="M575.651,124.413a47.256,47.256,0,0,0-5.293-12.689,32.982,32.982,0,0,0-8.029-9,25.175,25.175,0,0,0-10.086-4.686,21.954,21.954,0,0,0-4.539-.5,16.419,16.419,0,0,0-5.328.857,17.306,17.306,0,0,0-7.648,5.327,27.965,27.965,0,0,0-5.178,10.153,51.777,51.777,0,0,0-1.9,14.707,61.065,61.065,0,0,0,1.914,15.608,47.208,47.208,0,0,0,5.334,12.744,33.447,33.447,0,0,0,8.034,9.056,25.078,25.078,0,0,0,10.124,4.691,21.593,21.593,0,0,0,4.466.493,16.42,16.42,0,0,0,12.991-6.211,29,29,0,0,0,5.152-10.229,51.832,51.832,0,0,0,1.9-14.707A61.132,61.132,0,0,0,575.651,124.413Zm-11.3,21.092a26.221,26.221,0,0,1-2.288,6.884,10.978,10.978,0,0,1-4.076,4.543,7.714,7.714,0,0,1-3.948,1.083,8.7,8.7,0,0,1-1.795-.194,10.484,10.484,0,0,1-5.382-3.068,19.267,19.267,0,0,1-3.719-5.75,35.325,35.325,0,0,1-2.281-7.7,51.109,51.109,0,0,1-.791-9.252,46.132,46.132,0,0,1,.8-8.906,24.34,24.34,0,0,1,2.353-6.919,11.493,11.493,0,0,1,4.035-4.443,7.518,7.518,0,0,1,3.943-1.095,8.937,8.937,0,0,1,1.862.2,10.551,10.551,0,0,1,5.329,3.046,18.6,18.6,0,0,1,3.733,5.722,35.7,35.7,0,0,1,2.236,7.688,51.341,51.341,0,0,1,.791,9.2A45.854,45.854,0,0,1,564.35,145.505Z"/></g></g></svg>