<svg id="레이어_1" data-name="레이어 1" xmlns="http://www.w3.org/2000/svg" viewBox="0 0 1100.557 465.581"><defs><style>.cls-1{fill:none;}.cls-2{fill:#031926;}.cls-3{fill:#ffce00;}.cls-4{fill:#0e587c;}.cls-5{fill:#22460d;}</style></defs><path class="cls-1" d="M1151.743,513.07a23.317,23.317,0,0,0-6.992-8.143,15.824,15.824,0,0,0-18.321,0,24.54,24.54,0,0,0-6.993,8.143,45.454,45.454,0,0,0-4.513,12.568,81.792,81.792,0,0,0,0,32.128,46.839,46.839,0,0,0,4.513,12.567,24.287,24.287,0,0,0,6.993,8.231,15.824,15.824,0,0,0,18.321,0,23.1,23.1,0,0,0,6.992-8.231,49.043,49.043,0,0,0,4.425-12.567,81.741,81.741,0,0,0,0-32.128A47.543,47.543,0,0,0,1151.743,513.07Z" transform="translate(-409.722 -307.209)"/><path class="cls-1" d="M853.916,503.229a34.971,34.971,0,0,0-6.073,2.017,36.022,36.022,0,0,0-12,8.462,38.6,38.6,0,0,0-7.812,12.742,44.977,44.977,0,0,0-2.79,16.089,46.27,46.27,0,0,0,2.79,16.368,38.088,38.088,0,0,0,7.719,12.741,34.7,34.7,0,0,0,11.811,8.278,35.3,35.3,0,0,0,6.993,2.184A331.145,331.145,0,0,1,853.916,503.229Z" transform="translate(-409.722 -307.209)"/><path class="cls-1" d="M738.94,505.338a21.589,21.589,0,0,0-7.161-2.231,59.883,59.883,0,0,0-8.277-.558h-13.95v31.062h13.392a47.681,47.681,0,0,0,8.556-.744,22.944,22.944,0,0,0,7.347-2.6,13.96,13.96,0,0,0,5.115-4.93,14.687,14.687,0,0,0,1.86-7.718,14.2,14.2,0,0,0-1.86-7.626A12.99,12.99,0,0,0,738.94,505.338Z" transform="translate(-409.722 -307.209)"/><path class="cls-2" d="M1046.421,558.474q10.264-9.734,14.958-19.029a44.353,44.353,0,0,0,4.69-20.268,46.362,46.362,0,0,0-3.894-19.029,45.523,45.523,0,0,0-10.8-15.135A49.313,49.313,0,0,0,1035,475.1a58.472,58.472,0,0,0-20.622-3.541,56.422,56.422,0,0,0-20.8,3.718A47.256,47.256,0,0,0,977.208,485.9,48.146,48.146,0,0,0,966.5,502.361a56.922,56.922,0,0,0-3.806,21.241h37.881a43.572,43.572,0,0,1-.531-5.664,16.96,16.96,0,0,1,3.983-11.506q3.983-4.6,11.064-4.6a14.167,14.167,0,0,1,11.151,4.868,14.935,14.935,0,0,1,2.921,5.045,17.9,17.9,0,0,1,.974,5.84,33.413,33.413,0,0,1-.886,6.905,42.153,42.153,0,0,1-4.514,10.62,127.108,127.108,0,0,1-11.063,16.02q-7.434,9.47-20.534,23.1l-33.1,34.34h107.447V579.185h-43.191Z" transform="translate(-409.722 -307.209)"/><path class="cls-2" d="M1176.347,490.5a53.241,53.241,0,0,0-63.636-14.249,52.72,52.72,0,0,0-17.878,14.249,66.8,66.8,0,0,0-11.683,22.216,102.754,102.754,0,0,0,0,57.883,67.818,67.818,0,0,0,11.683,22.3,52.238,52.238,0,0,0,17.878,14.339,52.128,52.128,0,0,0,63.636-14.339,68.878,68.878,0,0,0,11.6-22.3,102.778,102.778,0,0,0,0-57.883A67.83,67.83,0,0,0,1176.347,490.5Zm-20.179,67.266a49.043,49.043,0,0,1-4.425,12.567,23.1,23.1,0,0,1-6.992,8.231,15.824,15.824,0,0,1-18.321,0,24.287,24.287,0,0,1-6.993-8.231,46.839,46.839,0,0,1-4.513-12.567,81.792,81.792,0,0,1,0-32.128,45.454,45.454,0,0,1,4.513-12.568,24.54,24.54,0,0,1,6.993-8.143,15.824,15.824,0,0,1,18.321,0,23.317,23.317,0,0,1,6.992,8.143,47.543,47.543,0,0,1,4.425,12.568,81.741,81.741,0,0,1,0,32.128Z" transform="translate(-409.722 -307.209)"/><path class="cls-2" d="M1287.156,558.474q10.265-9.734,14.958-19.029a44.354,44.354,0,0,0,4.691-20.268,46.362,46.362,0,0,0-3.894-19.029,45.523,45.523,0,0,0-10.8-15.135,49.3,49.3,0,0,0-16.374-9.912,58.468,58.468,0,0,0-20.622-3.541,56.422,56.422,0,0,0-20.8,3.718,47.275,47.275,0,0,0-16.374,10.621,48.146,48.146,0,0,0-10.709,16.462,56.922,56.922,0,0,0-3.8,21.241h37.88a43.394,43.394,0,0,1-.531-5.664,16.955,16.955,0,0,1,3.983-11.506q3.982-4.6,11.063-4.6a14.171,14.171,0,0,1,11.152,4.868,14.916,14.916,0,0,1,2.92,5.045,17.875,17.875,0,0,1,.974,5.84,33.472,33.472,0,0,1-.885,6.905,42.19,42.19,0,0,1-4.514,10.62,127.108,127.108,0,0,1-11.063,16.02q-7.434,9.47-20.533,23.1l-33.1,34.34h107.448V579.185H1265.03Z" transform="translate(-409.722 -307.209)"/><polygon class="cls-2" points="977.979 301.359 977.979 167.892 923.813 167.892 923.813 197.276 943.284 197.276 943.284 301.359 977.979 301.359"/><path class="cls-3" d="M891.088,606.244q-12.834,5.859-29.574,5.86c-.576,0-1.14-.025-1.71-.036a327.652,327.652,0,0,0,88.468,160.723l29-29A286.852,286.852,0,0,1,899.5,601.656,67.521,67.521,0,0,1,891.088,606.244Z" transform="translate(-409.722 -307.209)"/><path class="cls-3" d="M878.069,505.153a38.9,38.9,0,0,0-14.881-2.976,40.152,40.152,0,0,0-9.272,1.052,331.145,331.145,0,0,0,.641,78.881,40.334,40.334,0,0,0,8.073.791,35.047,35.047,0,0,0,16.554-3.719,32.116,32.116,0,0,0,11.346-9.672l4.29,4.038a289.914,289.914,0,0,1-.336-63.98l-4.7,4.7A26.706,26.706,0,0,0,878.069,505.153Z" transform="translate(-409.722 -307.209)"/><path class="cls-3" d="M889.506,478.276a60.86,60.86,0,0,1,9.143,4.2,286.821,286.821,0,0,1,78.626-146.267h0l-29-29h0a327.655,327.655,0,0,0-89.635,166.208c1.137-.043,2.28-.07,3.435-.07A79.406,79.406,0,0,1,889.506,478.276Z" transform="translate(-409.722 -307.209)"/><path class="cls-3" d="M1413.854,307.209l-29,29c112.549,112.549,112.549,295.027,0,407.576l29,29C1542.42,644.224,1542.42,435.776,1413.854,307.209Z" transform="translate(-409.722 -307.209)"/><path class="cls-4" d="M490.818,556.3a39.215,39.215,0,0,1-1.3,10.229,24.069,24.069,0,0,1-4.277,8.65,20.89,20.89,0,0,1-7.719,6.045,30.444,30.444,0,0,1-22.879,0,20.071,20.071,0,0,1-7.626-6.045,26.21,26.21,0,0,1-4.277-8.65,36.678,36.678,0,0,1-1.4-10.229V476.88h-31.62v82.027a57.856,57.856,0,0,0,3.906,21.669,47.238,47.238,0,0,0,11.159,16.74A50.875,50.875,0,0,0,442.458,608.2a71.965,71.965,0,0,0,46.779,0,52.759,52.759,0,0,0,17.949-10.881,47.153,47.153,0,0,0,11.439-16.74,56.684,56.684,0,0,0,4-21.669V476.88H490.818Z" transform="translate(-409.722 -307.209)"/><path class="cls-4" d="M630.688,579.182a35.047,35.047,0,0,1-16.554,3.719,37.54,37.54,0,0,1-15.066-2.975,34.7,34.7,0,0,1-11.811-8.278,38.088,38.088,0,0,1-7.719-12.741,46.27,46.27,0,0,1-2.79-16.368,44.977,44.977,0,0,1,2.79-16.089,38.6,38.6,0,0,1,7.812-12.742,36.022,36.022,0,0,1,12-8.462,37.685,37.685,0,0,1,15.345-3.069,38.886,38.886,0,0,1,14.88,2.976,26.712,26.712,0,0,1,11.718,9.114l21.576-21.576a52.554,52.554,0,0,0-21.855-14.415,81.342,81.342,0,0,0-55.521-.093A67.157,67.157,0,0,0,562.8,492.04,63.687,63.687,0,0,0,547.639,513.9a77.153,77.153,0,0,0-.093,56.917,65.051,65.051,0,0,0,37.293,36.269,77.134,77.134,0,0,0,28.179,5.023q16.74,0,29.574-5.86a62.709,62.709,0,0,0,21.576-15.9L642.034,569.51A32.116,32.116,0,0,1,630.688,579.182Z" transform="translate(-409.722 -307.209)"/><path class="cls-4" d="M762.655,485.9a47.628,47.628,0,0,0-16.368-6.882,90.9,90.9,0,0,0-20.181-2.14h-48.36V608.569h31.806V558.907h15.81a85.873,85.873,0,0,0,19.716-2.231,50.858,50.858,0,0,0,16.74-7.069,35.123,35.123,0,0,0,11.532-12.741q4.277-7.9,4.278-19.437,0-11.343-4-19.065A33.379,33.379,0,0,0,762.655,485.9Zm-18.693,39.431a13.96,13.96,0,0,1-5.115,4.93,22.944,22.944,0,0,1-7.347,2.6,47.681,47.681,0,0,1-8.556.744H709.552V502.549H723.5a59.883,59.883,0,0,1,8.277.558,21.589,21.589,0,0,1,7.161,2.231,12.99,12.99,0,0,1,5.022,4.651,14.2,14.2,0,0,1,1.86,7.626A14.687,14.687,0,0,1,743.962,525.333Z" transform="translate(-409.722 -307.209)"/><path class="cls-4" d="M847.564,579.926a34.7,34.7,0,0,1-11.811-8.278,38.088,38.088,0,0,1-7.719-12.741,46.27,46.27,0,0,1-2.79-16.368,44.977,44.977,0,0,1,2.79-16.089,38.6,38.6,0,0,1,7.812-12.742,36.022,36.022,0,0,1,12-8.462,34.971,34.971,0,0,1,6.073-2.017q1.674-14.986,4.721-29.812a78.817,78.817,0,0,0-24.651,4.766,67.157,67.157,0,0,0-22.692,13.857A63.687,63.687,0,0,0,796.135,513.9a77.153,77.153,0,0,0-.093,56.917,65.051,65.051,0,0,0,37.293,36.269,76.5,76.5,0,0,0,26.469,4.987q-3.322-14.872-5.247-29.958A35.3,35.3,0,0,1,847.564,579.926Z" transform="translate(-409.722 -307.209)"/><path class="cls-4" d="M911.362,492.691a49.04,49.04,0,0,0-12.713-10.212q-2.728,13.458-4.165,27.089Z" transform="translate(-409.722 -307.209)"/><path class="cls-4" d="M912.664,590.342,894.82,573.548q1.648,14.137,4.681,28.108A60.941,60.941,0,0,0,912.664,590.342Z" transform="translate(-409.722 -307.209)"/><path class="cls-5" d="M863.188,502.177a38.9,38.9,0,0,1,14.881,2.976,26.706,26.706,0,0,1,11.716,9.114l4.7-4.7q1.438-13.617,4.165-27.089a60.86,60.86,0,0,0-9.143-4.2,79.406,79.406,0,0,0-27.434-4.929c-1.155,0-2.3.027-3.435.07q-3.043,14.811-4.721,29.812A40.152,40.152,0,0,1,863.188,502.177Z" transform="translate(-409.722 -307.209)"/><path class="cls-5" d="M891.088,606.244a67.521,67.521,0,0,0,8.413-4.588q-3.04-13.951-4.681-28.108l-4.29-4.038a32.116,32.116,0,0,1-11.346,9.672A35.047,35.047,0,0,1,862.63,582.9a40.334,40.334,0,0,1-8.073-.791q1.932,15.069,5.247,29.958c.57.011,1.134.036,1.71.036Q878.254,612.1,891.088,606.244Z" transform="translate(-409.722 -307.209)"/></svg>