<svg xmlns="http://www.w3.org/2000/svg" viewBox="0 0 408.8 85.759"><defs><style>.d{fill:#001927}.e{fill:#ffb000}</style></defs><g id="b"><g id="c"><path class="d" d="M247.776 54.655V45.71l17.664-15.972c1.109-1.065 2.006-2.151 2.688-3.259.682-1.107 1.023-2.342 1.023-3.705 0-1.618-.512-2.928-1.535-3.929-1.024-1.001-2.391-1.502-4.097-1.502-1.792 0-3.254.63-4.384 1.888-1.131 1.259-1.803 2.912-2.016 4.96l-10.305-1.408c.257-2.304.886-4.355 1.889-6.156 1.002-1.8 2.271-3.333 3.808-4.601s3.296-2.234 5.28-2.9c1.983-.666 4.085-.999 6.304-.999 2.09 0 4.117.278 6.08.832 1.962.556 3.712 1.408 5.248 2.561 1.536 1.151 2.762 2.603 3.68 4.352.917 1.75 1.376 3.798 1.376 6.145 0 1.622-.214 3.083-.64 4.384a14.589 14.589 0 0 1-1.76 3.616c-.747 1.109-1.601 2.144-2.561 3.104s-1.952 1.91-2.976 2.848l-10.496 9.345h18.496v9.344h-32.769ZM323.169 31.871c0 3.2-.32 6.251-.96 9.152-.641 2.901-1.664 5.451-3.072 7.647a15.893 15.893 0 0 1-5.472 5.248c-2.24 1.302-4.961 1.952-8.16 1.952s-5.932-.65-8.192-1.952a16.075 16.075 0 0 1-5.536-5.248c-1.43-2.196-2.464-4.746-3.104-7.647-.641-2.901-.96-5.952-.96-9.152s.319-6.24.96-9.12c.64-2.88 1.674-5.396 3.104-7.552a16.017 16.017 0 0 1 5.536-5.152c2.261-1.279 4.992-1.92 8.192-1.92s5.92.641 8.16 1.92a15.848 15.848 0 0 1 5.472 5.152c1.408 2.155 2.432 4.672 3.072 7.552.64 2.88.96 5.92.96 9.12Zm-11.009 0a47.49 47.49 0 0 0-.256-4.672c-.171-1.706-.491-3.296-.96-4.768-.47-1.473-1.142-2.709-2.016-3.712-.875-1.003-2.017-1.505-3.424-1.505s-2.561.502-3.456 1.505c-.896 1.003-1.59 2.239-2.08 3.712-.491 1.472-.822 3.062-.992 4.768a47.184 47.184 0 0 0-.256 4.672c0 1.451.085 3.04.256 4.769.17 1.728.501 3.327.992 4.8.49 1.472 1.184 2.71 2.08 3.712.896 1.003 2.048 1.504 3.456 1.504s2.549-.501 3.424-1.504c.874-1.002 1.546-2.24 2.016-3.712.469-1.473.789-3.072.96-4.8.17-1.729.256-3.317.256-4.769ZM330.464 54.655V45.71l17.664-15.972c1.109-1.065 2.006-2.151 2.688-3.259.682-1.107 1.023-2.342 1.023-3.705 0-1.618-.512-2.928-1.535-3.929-1.024-1.001-2.391-1.502-4.097-1.502-1.792 0-3.254.63-4.384 1.888-1.131 1.259-1.803 2.912-2.016 4.96l-10.305-1.408c.257-2.304.886-4.355 1.889-6.156 1.002-1.8 2.271-3.333 3.808-4.601s3.296-2.234 5.28-2.9c1.983-.666 4.085-.999 6.304-.999 2.09 0 4.117.278 6.08.832 1.962.556 3.712 1.408 5.248 2.561 1.536 1.151 2.762 2.603 3.68 4.352.917 1.75 1.376 3.798 1.376 6.145 0 1.622-.214 3.083-.64 4.384a14.589 14.589 0 0 1-1.76 3.616c-.747 1.109-1.601 2.144-2.561 3.104s-1.952 1.91-2.976 2.848l-10.496 9.345h18.496v9.344h-32.769ZM371.808 54.655V45.71l17.664-15.972c1.109-1.065 2.006-2.151 2.688-3.259.682-1.107 1.023-2.342 1.023-3.705 0-1.618-.512-2.928-1.535-3.929-1.024-1.001-2.391-1.502-4.097-1.502-1.792 0-3.254.63-4.384 1.888-1.131 1.259-1.803 2.912-2.016 4.96l-10.305-1.408c.257-2.304.886-4.355 1.889-6.156 1.002-1.8 2.271-3.333 3.808-4.601s3.296-2.234 5.28-2.9c1.983-.666 4.085-.999 6.304-.999 2.09 0 4.117.278 6.08.832 1.962.556 3.712 1.408 5.248 2.561 1.536 1.151 2.762 2.603 3.68 4.352.917 1.75 1.376 3.798 1.376 6.145 0 1.622-.214 3.083-.64 4.384a14.589 14.589 0 0 1-1.76 3.616c-.747 1.109-1.601 2.144-2.561 3.104s-1.952 1.91-2.976 2.848l-10.496 9.345h18.496v9.344h-32.769Z"/><g><path class="e" d="M217.102 49.164a15.45 15.45 0 0 1-4.145 1.002c-6.888.697-12.85-4.179-12.885-11.101-.032-6.237 5.014-11.303 11.243-11.303 2.082 0 4.054.393 5.814 1.096 1.898.757 4.068.265 5.513-1.18l8.705-8.705c1.479-1.479 1.305-3.907-.343-5.195a31.872 31.872 0 0 0-20.297-6.767c-17.389.322-31.457 14.724-31.392 32.116.065 17.617 14.367 31.879 32 31.879a31.86 31.86 0 0 0 19.715-6.793 3.464 3.464 0 0 0 .316-5.176l-8.705-8.705c-1.452-1.452-3.63-1.926-5.539-1.168ZM96.598 49.164a15.45 15.45 0 0 1-4.145 1.002c-6.888.697-12.85-4.179-12.885-11.101-.032-6.237 5.014-11.303 11.243-11.303 2.082 0 4.054.393 5.814 1.096 1.898.757 4.068.265 5.513-1.18l8.705-8.705c1.479-1.479 1.305-3.907-.343-5.195a31.872 31.872 0 0 0-20.297-6.767c-17.389.322-31.457 14.724-31.392 32.116.065 17.617 14.367 31.879 32 31.879a31.86 31.86 0 0 0 19.715-6.793 3.464 3.464 0 0 0 .316-5.176l-8.705-8.705c-1.452-1.452-3.63-1.926-5.539-1.168ZM146.45 7.87h-22.495a3.459 3.459 0 0 0-3.451 3.459V66.68a3.459 3.459 0 0 0 3.459 3.459h14.703a3.458 3.458 0 0 0 3.459-3.459v-5.189c0-.955.774-1.73 1.73-1.73h2.595c14.33 0 25.946-11.616 25.946-25.946S160.78 7.869 146.45 7.869ZM50.697 8.718 0 44.672c0 14.26 11.343 26.146 25.601 26.331 14.487.188 26.29-11.499 26.29-25.944V11.33a3.45 3.45 0 0 0-1.195-2.612Z"/><path class="e" d="M3.459 7.87A3.459 3.459 0 0 0 0 11.329v33.343L25.946 7.87H3.459Z"/></g></g></g></svg>